solid OpenSCAD_Model
  facet normal -1 0 0
    outer loop
      vertex 0 10.6068 25
      vertex 0 0 25
      vertex 0 10.6068 27.8826
    endloop
  endfacet
  facet normal -1 0 0
    outer loop
      vertex 0 33.5 46
      vertex 0 26.5 46
      vertex 0 33.5 52.0569
    endloop
  endfacet
  facet normal -1 0 0
    outer loop
      vertex 0 49.3932 27.8826
      vertex 0 60 25
      vertex 0 49.3932 25
    endloop
  endfacet
  facet normal -1 0 0
    outer loop
      vertex 0 48.5456 33.5218
      vertex 0 60 25
      vertex 0 49.3932 27.8826
    endloop
  endfacet
  facet normal -1 0 0
    outer loop
      vertex 0 46.8875 38.7886
      vertex 0 60 25
      vertex 0 48.5456 33.5218
    endloop
  endfacet
  facet normal -1 0 0
    outer loop
      vertex 0 60 25
      vertex 0 46.8875 38.7886
      vertex 0 60 60
    endloop
  endfacet
  facet normal -1 0 0
    outer loop
      vertex 0 44.4913 43.4527
      vertex 0 60 60
      vertex 0 46.8875 38.7886
    endloop
  endfacet
  facet normal -1 0 0
    outer loop
      vertex 0 41.4618 47.3104
      vertex 0 60 60
      vertex 0 44.4913 43.4527
    endloop
  endfacet
  facet normal -1 0 0
    outer loop
      vertex 0 37.9314 50.193
      vertex 0 60 60
      vertex 0 41.4618 47.3104
    endloop
  endfacet
  facet normal -1 0 0
    outer loop
      vertex 0 34.0543 51.9745
      vertex 0 60 60
      vertex 0 37.9314 50.193
    endloop
  endfacet
  facet normal -1 0 0
    outer loop
      vertex 0 33.5 52.0569
      vertex 0 60 60
      vertex 0 34.0543 51.9745
    endloop
  endfacet
  facet normal -1 0 0
    outer loop
      vertex 0 26.5 52.0569
      vertex 0 33.5 52.0569
      vertex 0 26.5 46
    endloop
  endfacet
  facet normal -1 0 0
    outer loop
      vertex 0 26.5 52.0569
      vertex 0 60 60
      vertex 0 33.5 52.0569
    endloop
  endfacet
  facet normal -1 0 0
    outer loop
      vertex 0 0 60
      vertex 0 26.5 52.0569
      vertex 0 25.9457 51.9745
    endloop
  endfacet
  facet normal -1 0 0
    outer loop
      vertex 0 0 25
      vertex 0 11.4544 33.5218
      vertex 0 10.6068 27.8826
    endloop
  endfacet
  facet normal -1 0 0
    outer loop
      vertex 0 0 25
      vertex 0 13.1125 38.7886
      vertex 0 11.4544 33.5218
    endloop
  endfacet
  facet normal -1 0 0
    outer loop
      vertex 0 0 60
      vertex 0 13.1125 38.7886
      vertex 0 0 25
    endloop
  endfacet
  facet normal -1 0 0
    outer loop
      vertex 0 13.1125 38.7886
      vertex 0 0 60
      vertex 0 15.5087 43.4527
    endloop
  endfacet
  facet normal -1 0 0
    outer loop
      vertex 0 26.5 52.0569
      vertex 0 0 60
      vertex 0 60 60
    endloop
  endfacet
  facet normal -1 0 0
    outer loop
      vertex 0 22.0686 50.193
      vertex 0 0 60
      vertex 0 25.9457 51.9745
    endloop
  endfacet
  facet normal -1 0 0
    outer loop
      vertex 0 18.5382 47.3104
      vertex 0 0 60
      vertex 0 22.0686 50.193
    endloop
  endfacet
  facet normal -1 0 0
    outer loop
      vertex 0 15.5087 43.4527
      vertex 0 0 60
      vertex 0 18.5382 47.3104
    endloop
  endfacet
  facet normal 0 0 1
    outer loop
      vertex 10 60 60
      vertex 9.41903 57.081 60
      vertex 10 57.4692 60
    endloop
  endfacet
  facet normal -0 0 1
    outer loop
      vertex 0 60 60
      vertex 9.41903 57.081 60
      vertex 10 60 60
    endloop
  endfacet
  facet normal 0 0 1
    outer loop
      vertex 9.41903 57.081 60
      vertex 0 60 60
      vertex 8.79968 56.154 60
    endloop
  endfacet
  facet normal 0 0 1
    outer loop
      vertex 9.80701 37.9314 60
      vertex 0 60 60
      vertex 8.02546 34.0543 60
    endloop
  endfacet
  facet normal 0 0 1
    outer loop
      vertex 8.02546 34.0543 60
      vertex 0 60 60
      vertex 7.42284 30 60
    endloop
  endfacet
  facet normal 0 0 1
    outer loop
      vertex 8.36034 55.0934 60
      vertex 0 60 60
      vertex 8.14286 54 60
    endloop
  endfacet
  facet normal 0 0 1
    outer loop
      vertex 8.47452 55.6674 60
      vertex 0 60 60
      vertex 8.36034 55.0934 60
    endloop
  endfacet
  facet normal 0 0 1
    outer loop
      vertex 8.79968 56.154 60
      vertex 0 60 60
      vertex 8.47452 55.6674 60
    endloop
  endfacet
  facet normal 0 0 1
    outer loop
      vertex 20 60 60
      vertex 16.8571 54 60
      vertex 20 46.2651 60
    endloop
  endfacet
  facet normal 0 0 1
    outer loop
      vertex 20 60 60
      vertex 16.6397 55.0934 60
      vertex 16.8571 54 60
    endloop
  endfacet
  facet normal 0 0 1
    outer loop
      vertex 20 60 60
      vertex 16.5255 55.6674 60
      vertex 16.6397 55.0934 60
    endloop
  endfacet
  facet normal 0 0 1
    outer loop
      vertex 20 60 60
      vertex 16.2003 56.154 60
      vertex 16.5255 55.6674 60
    endloop
  endfacet
  facet normal 0 0 1
    outer loop
      vertex 20 60 60
      vertex 15.581 57.081 60
      vertex 16.2003 56.154 60
    endloop
  endfacet
  facet normal -0 0 1
    outer loop
      vertex 15 60 60
      vertex 15.581 57.081 60
      vertex 20 60 60
    endloop
  endfacet
  facet normal 0 0 1
    outer loop
      vertex 15.581 57.081 60
      vertex 15 60 60
      vertex 15 57.4692 60
    endloop
  endfacet
  facet normal -0 0 1
    outer loop
      vertex 16.6397 52.9066 60
      vertex 20 46.2651 60
      vertex 16.8571 54 60
    endloop
  endfacet
  facet normal -0 0 1
    outer loop
      vertex 16.5255 52.3326 60
      vertex 20 46.2651 60
      vertex 16.6397 52.9066 60
    endloop
  endfacet
  facet normal -0 0 1
    outer loop
      vertex 16.2003 51.846 60
      vertex 20 46.2651 60
      vertex 16.5255 52.3326 60
    endloop
  endfacet
  facet normal -0 0 1
    outer loop
      vertex 15.581 50.919 60
      vertex 20 46.2651 60
      vertex 16.2003 51.846 60
    endloop
  endfacet
  facet normal 0 0 1
    outer loop
      vertex 20 46.2651 60
      vertex 15.581 50.919 60
      vertex 16.5473 44.4913 60
    endloop
  endfacet
  facet normal -0 0 1
    outer loop
      vertex 14.654 50.2997 60
      vertex 16.5473 44.4913 60
      vertex 15.581 50.919 60
    endloop
  endfacet
  facet normal -0 0 1
    outer loop
      vertex 14.1674 49.9745 60
      vertex 16.5473 44.4913 60
      vertex 14.654 50.2997 60
    endloop
  endfacet
  facet normal -0 0 1
    outer loop
      vertex 13.5934 49.8603 60
      vertex 16.5473 44.4913 60
      vertex 14.1674 49.9745 60
    endloop
  endfacet
  facet normal -0 0 1
    outer loop
      vertex 12.5 49.6429 60
      vertex 16.5473 44.4913 60
      vertex 13.5934 49.8603 60
    endloop
  endfacet
  facet normal 0 0 1
    outer loop
      vertex 16.5473 44.4913 60
      vertex 12.5 49.6429 60
      vertex 12.6896 41.4618 60
    endloop
  endfacet
  facet normal 0 0 1
    outer loop
      vertex 11.926 49.757 60
      vertex 12.6896 41.4618 60
      vertex 12.5 49.6429 60
    endloop
  endfacet
  facet normal 0 0 1
    outer loop
      vertex 10.8326 49.9745 60
      vertex 12.6896 41.4618 60
      vertex 11.926 49.757 60
    endloop
  endfacet
  facet normal 0 0 1
    outer loop
      vertex 10.346 50.2997 60
      vertex 12.6896 41.4618 60
      vertex 10.8326 49.9745 60
    endloop
  endfacet
  facet normal 0 0 1
    outer loop
      vertex 10.346 50.2997 60
      vertex 9.80701 37.9314 60
      vertex 12.6896 41.4618 60
    endloop
  endfacet
  facet normal 0 0 1
    outer loop
      vertex 9.41903 50.919 60
      vertex 9.80701 37.9314 60
      vertex 10.346 50.2997 60
    endloop
  endfacet
  facet normal 0 0 1
    outer loop
      vertex 8.79968 51.846 60
      vertex 9.80701 37.9314 60
      vertex 9.41903 50.919 60
    endloop
  endfacet
  facet normal 0 0 1
    outer loop
      vertex 8.47452 52.3326 60
      vertex 9.80701 37.9314 60
      vertex 8.79968 51.846 60
    endloop
  endfacet
  facet normal 0 0 1
    outer loop
      vertex 0 60 60
      vertex 8.47452 52.3326 60
      vertex 8.25704 53.426 60
    endloop
  endfacet
  facet normal 0 0 1
    outer loop
      vertex 0 60 60
      vertex 8.25704 53.426 60
      vertex 8.14286 54 60
    endloop
  endfacet
  facet normal 0 0 1
    outer loop
      vertex 0 60 60
      vertex 9.80701 37.9314 60
      vertex 8.47452 52.3326 60
    endloop
  endfacet
  facet normal 0 0 1
    outer loop
      vertex 20 13.7349 60
      vertex 16.8571 6 60
      vertex 20 0 60
    endloop
  endfacet
  facet normal 0 0 1
    outer loop
      vertex 20 13.7349 60
      vertex 16.6397 7.09338 60
      vertex 16.8571 6 60
    endloop
  endfacet
  facet normal 0 0 1
    outer loop
      vertex 15.581 9.08097 60
      vertex 20 13.7349 60
      vertex 16.5473 15.5087 60
    endloop
  endfacet
  facet normal 0 0 1
    outer loop
      vertex 20 13.7349 60
      vertex 16.5255 7.66741 60
      vertex 16.6397 7.09338 60
    endloop
  endfacet
  facet normal 0 0 1
    outer loop
      vertex 20 13.7349 60
      vertex 16.2003 8.15404 60
      vertex 16.5255 7.66741 60
    endloop
  endfacet
  facet normal 0 0 1
    outer loop
      vertex 20 13.7349 60
      vertex 15.581 9.08097 60
      vertex 16.2003 8.15404 60
    endloop
  endfacet
  facet normal 0 0 1
    outer loop
      vertex 16.5473 15.5087 60
      vertex 14.654 9.70032 60
      vertex 15.581 9.08097 60
    endloop
  endfacet
  facet normal 0 0 1
    outer loop
      vertex 16.5473 15.5087 60
      vertex 14.1674 10.0255 60
      vertex 14.654 9.70032 60
    endloop
  endfacet
  facet normal 0 0 1
    outer loop
      vertex 16.5473 15.5087 60
      vertex 13.5934 10.1397 60
      vertex 14.1674 10.0255 60
    endloop
  endfacet
  facet normal 0 0 1
    outer loop
      vertex 12.5 10.3571 60
      vertex 16.5473 15.5087 60
      vertex 12.6896 18.5382 60
    endloop
  endfacet
  facet normal 0 0 1
    outer loop
      vertex 16.5473 15.5087 60
      vertex 12.5 10.3571 60
      vertex 13.5934 10.1397 60
    endloop
  endfacet
  facet normal 0 0 1
    outer loop
      vertex 12.6896 18.5382 60
      vertex 11.4066 10.1397 60
      vertex 12.5 10.3571 60
    endloop
  endfacet
  facet normal 0 0 1
    outer loop
      vertex 12.6896 18.5382 60
      vertex 10.8326 10.0255 60
      vertex 11.4066 10.1397 60
    endloop
  endfacet
  facet normal 0 0 1
    outer loop
      vertex 12.6896 18.5382 60
      vertex 10.346 9.70032 60
      vertex 10.8326 10.0255 60
    endloop
  endfacet
  facet normal 0 0 1
    outer loop
      vertex 9.80701 22.0686 60
      vertex 10.346 9.70032 60
      vertex 12.6896 18.5382 60
    endloop
  endfacet
  facet normal 0 0 1
    outer loop
      vertex 9.80701 22.0686 60
      vertex 9.41903 9.08097 60
      vertex 10.346 9.70032 60
    endloop
  endfacet
  facet normal 0 0 1
    outer loop
      vertex 9.80701 22.0686 60
      vertex 8.79968 8.15404 60
      vertex 9.41903 9.08097 60
    endloop
  endfacet
  facet normal 0 0 1
    outer loop
      vertex 9.80701 22.0686 60
      vertex 8.47452 7.66741 60
      vertex 8.79968 8.15404 60
    endloop
  endfacet
  facet normal 0 0 1
    outer loop
      vertex 0 0 60
      vertex 8.47452 7.66741 60
      vertex 9.80701 22.0686 60
    endloop
  endfacet
  facet normal 0 0 1
    outer loop
      vertex 8.47452 7.66741 60
      vertex 0 0 60
      vertex 8.36034 7.09338 60
    endloop
  endfacet
  facet normal 0 0 1
    outer loop
      vertex 0 0 60
      vertex 9.80701 22.0686 60
      vertex 8.02546 25.9457 60
    endloop
  endfacet
  facet normal -0 0 1
    outer loop
      vertex 16.6397 4.90662 60
      vertex 20 0 60
      vertex 16.8571 6 60
    endloop
  endfacet
  facet normal -0 0 1
    outer loop
      vertex 16.5255 4.33259 60
      vertex 20 0 60
      vertex 16.6397 4.90662 60
    endloop
  endfacet
  facet normal -0 0 1
    outer loop
      vertex 16.2003 3.84596 60
      vertex 20 0 60
      vertex 16.5255 4.33259 60
    endloop
  endfacet
  facet normal -0 0 1
    outer loop
      vertex 15.581 2.91903 60
      vertex 20 0 60
      vertex 16.2003 3.84596 60
    endloop
  endfacet
  facet normal 0 0 1
    outer loop
      vertex 15 0 60
      vertex 15.581 2.91903 60
      vertex 15 2.53085 60
    endloop
  endfacet
  facet normal 0 0 1
    outer loop
      vertex 15.581 2.91903 60
      vertex 15 0 60
      vertex 20 0 60
    endloop
  endfacet
  facet normal 0 0 1
    outer loop
      vertex 9.41903 2.91903 60
      vertex 10 0 60
      vertex 10 2.53084 60
    endloop
  endfacet
  facet normal 0 0 1
    outer loop
      vertex 0 0 60
      vertex 9.41903 2.91903 60
      vertex 8.79968 3.84596 60
    endloop
  endfacet
  facet normal 0 0 1
    outer loop
      vertex 0 0 60
      vertex 8.79968 3.84596 60
      vertex 8.47452 4.33259 60
    endloop
  endfacet
  facet normal 0 0 1
    outer loop
      vertex 0 0 60
      vertex 8.25704 5.42597 60
      vertex 8.14286 6 60
    endloop
  endfacet
  facet normal 0 0 1
    outer loop
      vertex 0 0 60
      vertex 8.02546 25.9457 60
      vertex 7.42284 30 60
    endloop
  endfacet
  facet normal 0 0 1
    outer loop
      vertex 0 0 60
      vertex 7.42284 30 60
      vertex 0 60 60
    endloop
  endfacet
  facet normal 0 0 1
    outer loop
      vertex 9.41903 2.91903 60
      vertex 0 0 60
      vertex 10 0 60
    endloop
  endfacet
  facet normal 0 0 1
    outer loop
      vertex 8.25704 5.42597 60
      vertex 0 0 60
      vertex 8.47452 4.33259 60
    endloop
  endfacet
  facet normal 0 0 1
    outer loop
      vertex 8.36034 7.09338 60
      vertex 0 0 60
      vertex 8.14286 6 60
    endloop
  endfacet
  facet normal 1 0 0
    outer loop
      vertex 20 10.6068 47.8826
      vertex 20 0 60
      vertex 20 10.6068 42.1174
    endloop
  endfacet
  facet normal 1 0 0
    outer loop
      vertex 20 11.4544 53.5218
      vertex 20 0 60
      vertex 20 10.6068 47.8826
    endloop
  endfacet
  facet normal 1 0 0
    outer loop
      vertex 20 13.1125 58.7886
      vertex 20 0 60
      vertex 20 11.4544 53.5218
    endloop
  endfacet
  facet normal 1 -0 0
    outer loop
      vertex 20 0 60
      vertex 20 13.1125 58.7886
      vertex 20 13.7349 60
    endloop
  endfacet
  facet normal 1 0 0
    outer loop
      vertex 20 0 25
      vertex 20 10.6068 42.1174
      vertex 20 0 60
    endloop
  endfacet
  facet normal 1 0 0
    outer loop
      vertex 20 10.6068 42.1174
      vertex 20 0 25
      vertex 20 11.4544 36.4782
    endloop
  endfacet
  facet normal 1 0 0
    outer loop
      vertex 20 15.5087 26.5473
      vertex 20 0 25
      vertex 20 16.7238 25
    endloop
  endfacet
  facet normal 1 0 0
    outer loop
      vertex 20 13.1125 31.2114
      vertex 20 0 25
      vertex 20 15.5087 26.5473
    endloop
  endfacet
  facet normal 1 0 0
    outer loop
      vertex 20 11.4544 36.4782
      vertex 20 0 25
      vertex 20 13.1125 31.2114
    endloop
  endfacet
  facet normal 1 0 0
    outer loop
      vertex 20 49.3932 42.1174
      vertex 20 60 60
      vertex 20 49.3932 47.8826
    endloop
  endfacet
  facet normal 1 0 0
    outer loop
      vertex 20 60 60
      vertex 20 48.5456 53.5218
      vertex 20 49.3932 47.8826
    endloop
  endfacet
  facet normal 1 0 0
    outer loop
      vertex 20 60 60
      vertex 20 46.8875 58.7886
      vertex 20 48.5456 53.5218
    endloop
  endfacet
  facet normal 1 0 -0
    outer loop
      vertex 20 46.8875 58.7886
      vertex 20 60 60
      vertex 20 46.2651 60
    endloop
  endfacet
  facet normal 1 0 0
    outer loop
      vertex 20 60 60
      vertex 20 49.3932 42.1174
      vertex 20 60 25
    endloop
  endfacet
  facet normal 1 -0 0
    outer loop
      vertex 20 48.5456 36.4782
      vertex 20 60 25
      vertex 20 49.3932 42.1174
    endloop
  endfacet
  facet normal 1 -0 0
    outer loop
      vertex 20 46.8875 31.2114
      vertex 20 60 25
      vertex 20 48.5456 36.4782
    endloop
  endfacet
  facet normal 1 -0 0
    outer loop
      vertex 20 44.4913 26.5473
      vertex 20 60 25
      vertex 20 46.8875 31.2114
    endloop
  endfacet
  facet normal 1 0 0
    outer loop
      vertex 20 60 25
      vertex 20 44.4913 26.5473
      vertex 20 43.2762 25
    endloop
  endfacet
  facet normal 0 1 0
    outer loop
      vertex 20 60 60
      vertex 15 60 30
      vertex 15 60 60
    endloop
  endfacet
  facet normal 0 1 0
    outer loop
      vertex 15 60 30
      vertex 20 60 25
      vertex 10 60 30
    endloop
  endfacet
  facet normal 0 1 -0
    outer loop
      vertex 20 60 25
      vertex 15 60 30
      vertex 20 60 60
    endloop
  endfacet
  facet normal 0 1 -0
    outer loop
      vertex 10 60 30
      vertex 0 60 60
      vertex 10 60 60
    endloop
  endfacet
  facet normal 0 1 0
    outer loop
      vertex 10 60 30
      vertex 0 60 25
      vertex 0 60 60
    endloop
  endfacet
  facet normal 0 1 0
    outer loop
      vertex 0 60 25
      vertex 10 60 30
      vertex 20 60 25
    endloop
  endfacet
  facet normal 0 0 -1
    outer loop
      vertex 20 43.2762 25
      vertex 17.6683 52.1189 25
      vertex 18 54 25
    endloop
  endfacet
  facet normal 0 0 -1
    outer loop
      vertex 18.4527 44.4913 25
      vertex 16.7132 50.4647 25
      vertex 17.6683 52.1189 25
    endloop
  endfacet
  facet normal 0 0 -1
    outer loop
      vertex 18.4527 44.4913 25
      vertex 15.25 49.2369 25
      vertex 16.7132 50.4647 25
    endloop
  endfacet
  facet normal 0 0 -1
    outer loop
      vertex 13.7886 46.8875 25
      vertex 15.25 49.2369 25
      vertex 18.4527 44.4913 25
    endloop
  endfacet
  facet normal 0 0 -1
    outer loop
      vertex 13.7886 46.8875 25
      vertex 13.4551 48.5836 25
      vertex 15.25 49.2369 25
    endloop
  endfacet
  facet normal 0 0 -1
    outer loop
      vertex 13.7886 46.8875 25
      vertex 11.5449 48.5836 25
      vertex 13.4551 48.5836 25
    endloop
  endfacet
  facet normal 0 0 -1
    outer loop
      vertex 8.52181 48.5456 25
      vertex 11.5449 48.5836 25
      vertex 13.7886 46.8875 25
    endloop
  endfacet
  facet normal -0 0 -1
    outer loop
      vertex 11.5449 48.5836 25
      vertex 8.52181 48.5456 25
      vertex 9.75 49.2369 25
    endloop
  endfacet
  facet normal 0 0 -1
    outer loop
      vertex 8.52181 48.5456 25
      vertex 8.28676 50.4647 25
      vertex 9.75 49.2369 25
    endloop
  endfacet
  facet normal 0 0 -1
    outer loop
      vertex 2.8826 49.3932 25
      vertex 8.28676 50.4647 25
      vertex 8.52181 48.5456 25
    endloop
  endfacet
  facet normal -0 0 -1
    outer loop
      vertex 7.33169 52.1189 25
      vertex 2.8826 49.3932 25
      vertex 7 54 25
    endloop
  endfacet
  facet normal -0 0 -1
    outer loop
      vertex 8.28676 50.4647 25
      vertex 2.8826 49.3932 25
      vertex 7.33169 52.1189 25
    endloop
  endfacet
  facet normal 0 0 -1
    outer loop
      vertex 17.6683 52.1189 25
      vertex 20 43.2762 25
      vertex 18.4527 44.4913 25
    endloop
  endfacet
  facet normal 0 0 -1
    outer loop
      vertex 20 43.2762 25
      vertex 18 54 25
      vertex 20 60 25
    endloop
  endfacet
  facet normal 0 0 -1
    outer loop
      vertex 17.6683 55.8811 25
      vertex 20 60 25
      vertex 18 54 25
    endloop
  endfacet
  facet normal 0 0 -1
    outer loop
      vertex 16.7132 57.5353 25
      vertex 20 60 25
      vertex 17.6683 55.8811 25
    endloop
  endfacet
  facet normal 0 0 -1
    outer loop
      vertex 15.25 58.7631 25
      vertex 20 60 25
      vertex 16.7132 57.5353 25
    endloop
  endfacet
  facet normal 0 0 -1
    outer loop
      vertex 13.4551 59.4164 25
      vertex 20 60 25
      vertex 15.25 58.7631 25
    endloop
  endfacet
  facet normal 0 0 -1
    outer loop
      vertex 11.5449 59.4164 25
      vertex 20 60 25
      vertex 13.4551 59.4164 25
    endloop
  endfacet
  facet normal 0 0 -1
    outer loop
      vertex 0 60 25
      vertex 7 54 25
      vertex 2.8826 49.3932 25
    endloop
  endfacet
  facet normal 0 0 -1
    outer loop
      vertex 7 54 25
      vertex 0 60 25
      vertex 7.33169 55.8811 25
    endloop
  endfacet
  facet normal 0 0 -1
    outer loop
      vertex 0 60 25
      vertex 2.8826 49.3932 25
      vertex 0 49.3932 25
    endloop
  endfacet
  facet normal 0 0 -1
    outer loop
      vertex 11.5449 59.4164 25
      vertex 0 60 25
      vertex 20 60 25
    endloop
  endfacet
  facet normal 0 0 -1
    outer loop
      vertex 9.75 58.7631 25
      vertex 0 60 25
      vertex 11.5449 59.4164 25
    endloop
  endfacet
  facet normal 0 0 -1
    outer loop
      vertex 8.28676 57.5353 25
      vertex 0 60 25
      vertex 9.75 58.7631 25
    endloop
  endfacet
  facet normal 0 0 -1
    outer loop
      vertex 7.33169 55.8811 25
      vertex 0 60 25
      vertex 8.28676 57.5353 25
    endloop
  endfacet
  facet normal 0 0 -1
    outer loop
      vertex 18 6 25
      vertex 20 16.7238 25
      vertex 20 0 25
    endloop
  endfacet
  facet normal 0 0 -1
    outer loop
      vertex 17.6683 7.88111 25
      vertex 20 16.7238 25
      vertex 18 6 25
    endloop
  endfacet
  facet normal 0 0 -1
    outer loop
      vertex 20 0 25
      vertex 17.6683 4.11889 25
      vertex 18 6 25
    endloop
  endfacet
  facet normal 0 0 -1
    outer loop
      vertex 20 0 25
      vertex 16.7132 2.46467 25
      vertex 17.6683 4.11889 25
    endloop
  endfacet
  facet normal 0 0 -1
    outer loop
      vertex 20 0 25
      vertex 15.25 1.23686 25
      vertex 16.7132 2.46467 25
    endloop
  endfacet
  facet normal 0 0 -1
    outer loop
      vertex 20 0 25
      vertex 13.4551 0.583557 25
      vertex 15.25 1.23686 25
    endloop
  endfacet
  facet normal 0 0 -1
    outer loop
      vertex 20 0 25
      vertex 11.5449 0.583557 25
      vertex 13.4551 0.583557 25
    endloop
  endfacet
  facet normal 0 0 -1
    outer loop
      vertex 0 0 25
      vertex 7 6 25
      vertex 7.33169 4.11889 25
    endloop
  endfacet
  facet normal 0 0 -1
    outer loop
      vertex 0 0 25
      vertex 7.33169 4.11889 25
      vertex 8.28676 2.46467 25
    endloop
  endfacet
  facet normal 0 0 -1
    outer loop
      vertex 0 0 25
      vertex 11.5449 0.583557 25
      vertex 20 0 25
    endloop
  endfacet
  facet normal 0 0 -1
    outer loop
      vertex 0 0 25
      vertex 9.75 1.23686 25
      vertex 11.5449 0.583557 25
    endloop
  endfacet
  facet normal 0 0 -1
    outer loop
      vertex 0 0 25
      vertex 8.28676 2.46467 25
      vertex 9.75 1.23686 25
    endloop
  endfacet
  facet normal -0 0 -1
    outer loop
      vertex 7 6 25
      vertex 0 0 25
      vertex 2.8826 10.6068 25
    endloop
  endfacet
  facet normal -0 0 -1
    outer loop
      vertex 2.8826 10.6068 25
      vertex 0 0 25
      vertex 0 10.6068 25
    endloop
  endfacet
  facet normal 0 0 -1
    outer loop
      vertex 20 16.7238 25
      vertex 17.6683 7.88111 25
      vertex 18.4527 15.5087 25
    endloop
  endfacet
  facet normal 0 0 -1
    outer loop
      vertex 16.7132 9.53533 25
      vertex 18.4527 15.5087 25
      vertex 17.6683 7.88111 25
    endloop
  endfacet
  facet normal 0 0 -1
    outer loop
      vertex 15.25 10.7631 25
      vertex 18.4527 15.5087 25
      vertex 16.7132 9.53533 25
    endloop
  endfacet
  facet normal 0 0 -1
    outer loop
      vertex 15.25 10.7631 25
      vertex 13.7886 13.1125 25
      vertex 18.4527 15.5087 25
    endloop
  endfacet
  facet normal 0 0 -1
    outer loop
      vertex 13.4551 11.4164 25
      vertex 13.7886 13.1125 25
      vertex 15.25 10.7631 25
    endloop
  endfacet
  facet normal 0 0 -1
    outer loop
      vertex 11.5449 11.4164 25
      vertex 13.7886 13.1125 25
      vertex 13.4551 11.4164 25
    endloop
  endfacet
  facet normal 0 0 -1
    outer loop
      vertex 8.52181 11.4544 25
      vertex 11.5449 11.4164 25
      vertex 9.75 10.7631 25
    endloop
  endfacet
  facet normal 0 0 -1
    outer loop
      vertex 11.5449 11.4164 25
      vertex 8.52181 11.4544 25
      vertex 13.7886 13.1125 25
    endloop
  endfacet
  facet normal 0 0 -1
    outer loop
      vertex 8.28676 9.53533 25
      vertex 8.52181 11.4544 25
      vertex 9.75 10.7631 25
    endloop
  endfacet
  facet normal 0 0 -1
    outer loop
      vertex 2.8826 10.6068 25
      vertex 8.28676 9.53533 25
      vertex 7.33169 7.88111 25
    endloop
  endfacet
  facet normal 0 0 -1
    outer loop
      vertex 8.28676 9.53533 25
      vertex 2.8826 10.6068 25
      vertex 8.52181 11.4544 25
    endloop
  endfacet
  facet normal 0 0 -1
    outer loop
      vertex 2.8826 10.6068 25
      vertex 7.33169 7.88111 25
      vertex 7 6 25
    endloop
  endfacet
  facet normal 0 -1 0
    outer loop
      vertex 0 0 60
      vertex 10 0 30
      vertex 10 0 60
    endloop
  endfacet
  facet normal 0 -1 0
    outer loop
      vertex 20 0 25
      vertex 10 0 30
      vertex 0 0 25
    endloop
  endfacet
  facet normal 0 -1 0
    outer loop
      vertex 0 0 25
      vertex 10 0 30
      vertex 0 0 60
    endloop
  endfacet
  facet normal 0 -1 0
    outer loop
      vertex 15 0 30
      vertex 20 0 60
      vertex 15 0 60
    endloop
  endfacet
  facet normal 0 -1 0
    outer loop
      vertex 15 0 30
      vertex 20 0 25
      vertex 20 0 60
    endloop
  endfacet
  facet normal 0 -1 0
    outer loop
      vertex 10 0 30
      vertex 20 0 25
      vertex 15 0 30
    endloop
  endfacet
  facet normal 0.984808 0.173649 0
    outer loop
      vertex 18 6 25
      vertex 17.6683 7.88111 18
      vertex 17.6683 7.88111 25
    endloop
  endfacet
  facet normal 0.984808 0.173649 0
    outer loop
      vertex 17.6683 7.88111 18
      vertex 18 6 25
      vertex 18 6 18
    endloop
  endfacet
  facet normal 0 1 -0
    outer loop
      vertex 13.4551 11.4164 18
      vertex 11.5449 11.4164 25
      vertex 13.4551 11.4164 25
    endloop
  endfacet
  facet normal 0 1 0
    outer loop
      vertex 11.5449 11.4164 25
      vertex 13.4551 11.4164 18
      vertex 11.5449 11.4164 18
    endloop
  endfacet
  facet normal 0.642788 0.766044 -0
    outer loop
      vertex 16.7132 9.53533 18
      vertex 15.25 10.7631 25
      vertex 16.7132 9.53533 25
    endloop
  endfacet
  facet normal 0.642788 0.766044 0
    outer loop
      vertex 15.25 10.7631 25
      vertex 16.7132 9.53533 18
      vertex 15.25 10.7631 18
    endloop
  endfacet
  facet normal 0.866026 0.5 0
    outer loop
      vertex 17.6683 7.88111 25
      vertex 16.7132 9.53533 18
      vertex 16.7132 9.53533 25
    endloop
  endfacet
  facet normal 0.866026 0.5 0
    outer loop
      vertex 16.7132 9.53533 18
      vertex 17.6683 7.88111 25
      vertex 17.6683 7.88111 18
    endloop
  endfacet
  facet normal 0.34202 0.939693 -0
    outer loop
      vertex 15.25 10.7631 18
      vertex 13.4551 11.4164 25
      vertex 15.25 10.7631 25
    endloop
  endfacet
  facet normal 0.34202 0.939693 0
    outer loop
      vertex 13.4551 11.4164 25
      vertex 15.25 10.7631 18
      vertex 13.4551 11.4164 18
    endloop
  endfacet
  facet normal -0.866025 0.5 0
    outer loop
      vertex 7.33169 7.88111 18
      vertex 8.28676 9.53533 25
      vertex 8.28676 9.53533 18
    endloop
  endfacet
  facet normal -0.866025 0.5 0
    outer loop
      vertex 8.28676 9.53533 25
      vertex 7.33169 7.88111 18
      vertex 7.33169 7.88111 25
    endloop
  endfacet
  facet normal 0 0 -1
    outer loop
      vertex 12.9635 4.57341 18
      vertex 15.25 1.23686 18
      vertex 13.4551 0.583557 18
    endloop
  endfacet
  facet normal 0 0 -1
    outer loop
      vertex 15.25 1.23686 18
      vertex 12.9635 4.57341 18
      vertex 14 6 18
    endloop
  endfacet
  facet normal 0 0 -1
    outer loop
      vertex 11.5449 0.583557 18
      vertex 12.9635 4.57341 18
      vertex 13.4551 0.583557 18
    endloop
  endfacet
  facet normal 0 0 -1
    outer loop
      vertex 11.5449 0.583557 18
      vertex 11.2865 5.11832 18
      vertex 12.9635 4.57341 18
    endloop
  endfacet
  facet normal 0 0 -1
    outer loop
      vertex 7 6 18
      vertex 11.2865 6.88168 18
      vertex 11.2865 5.11832 18
    endloop
  endfacet
  facet normal 0 0 -1
    outer loop
      vertex 9.75 1.23686 18
      vertex 11.2865 5.11832 18
      vertex 11.5449 0.583557 18
    endloop
  endfacet
  facet normal 0 0 -1
    outer loop
      vertex 8.28676 2.46467 18
      vertex 11.2865 5.11832 18
      vertex 9.75 1.23686 18
    endloop
  endfacet
  facet normal 0 0 -1
    outer loop
      vertex 7.33169 4.11889 18
      vertex 11.2865 5.11832 18
      vertex 8.28676 2.46467 18
    endloop
  endfacet
  facet normal 0 0 -1
    outer loop
      vertex 11.2865 6.88168 18
      vertex 8.28676 9.53533 18
      vertex 9.75 10.7631 18
    endloop
  endfacet
  facet normal 0 0 -1
    outer loop
      vertex 7 6 18
      vertex 11.2865 5.11832 18
      vertex 7.33169 4.11889 18
    endloop
  endfacet
  facet normal 0 0 -1
    outer loop
      vertex 11.2865 6.88168 18
      vertex 7.33169 7.88111 18
      vertex 8.28676 9.53533 18
    endloop
  endfacet
  facet normal -0 0 -1
    outer loop
      vertex 11.2865 6.88168 18
      vertex 7 6 18
      vertex 7.33169 7.88111 18
    endloop
  endfacet
  facet normal 0 0 -1
    outer loop
      vertex 14 6 18
      vertex 18 6 18
      vertex 17.6683 4.11889 18
    endloop
  endfacet
  facet normal 0 0 -1
    outer loop
      vertex 14 6 18
      vertex 17.6683 4.11889 18
      vertex 16.7132 2.46467 18
    endloop
  endfacet
  facet normal 0 0 -1
    outer loop
      vertex 18 6 18
      vertex 14 6 18
      vertex 17.6683 7.88111 18
    endloop
  endfacet
  facet normal -0 0 -1
    outer loop
      vertex 17.6683 7.88111 18
      vertex 14 6 18
      vertex 16.7132 9.53533 18
    endloop
  endfacet
  facet normal 0 0 -1
    outer loop
      vertex 14 6 18
      vertex 16.7132 2.46467 18
      vertex 15.25 1.23686 18
    endloop
  endfacet
  facet normal 0 0 -1
    outer loop
      vertex 12.9635 7.42658 18
      vertex 16.7132 9.53533 18
      vertex 14 6 18
    endloop
  endfacet
  facet normal -0 0 -1
    outer loop
      vertex 16.7132 9.53533 18
      vertex 12.9635 7.42658 18
      vertex 15.25 10.7631 18
    endloop
  endfacet
  facet normal -0 0 -1
    outer loop
      vertex 15.25 10.7631 18
      vertex 12.9635 7.42658 18
      vertex 13.4551 11.4164 18
    endloop
  endfacet
  facet normal 0 0 -1
    outer loop
      vertex 12.9635 7.42658 18
      vertex 11.5449 11.4164 18
      vertex 13.4551 11.4164 18
    endloop
  endfacet
  facet normal 0 0 -1
    outer loop
      vertex 11.2865 6.88168 18
      vertex 11.5449 11.4164 18
      vertex 12.9635 7.42658 18
    endloop
  endfacet
  facet normal 0 0 -1
    outer loop
      vertex 11.5449 11.4164 18
      vertex 11.2865 6.88168 18
      vertex 9.75 10.7631 18
    endloop
  endfacet
  facet normal -0.984808 0.173648 0
    outer loop
      vertex 7 6 18
      vertex 7.33169 7.88111 25
      vertex 7.33169 7.88111 18
    endloop
  endfacet
  facet normal -0.984808 0.173648 0
    outer loop
      vertex 7.33169 7.88111 25
      vertex 7 6 18
      vertex 7 6 25
    endloop
  endfacet
  facet normal -0.642787 0.766045 0
    outer loop
      vertex 9.75 10.7631 18
      vertex 8.28676 9.53533 25
      vertex 9.75 10.7631 25
    endloop
  endfacet
  facet normal -0.642787 0.766045 0
    outer loop
      vertex 8.28676 9.53533 25
      vertex 9.75 10.7631 18
      vertex 8.28676 9.53533 18
    endloop
  endfacet
  facet normal 0.984808 -0.173649 0
    outer loop
      vertex 17.6683 4.11889 25
      vertex 18 6 18
      vertex 18 6 25
    endloop
  endfacet
  facet normal 0.984808 -0.173649 0
    outer loop
      vertex 18 6 18
      vertex 17.6683 4.11889 25
      vertex 17.6683 4.11889 18
    endloop
  endfacet
  facet normal -0.34202 -0.939693 0
    outer loop
      vertex 9.75 1.23686 18
      vertex 11.5449 0.583557 25
      vertex 9.75 1.23686 25
    endloop
  endfacet
  facet normal -0.34202 -0.939693 -0
    outer loop
      vertex 11.5449 0.583557 25
      vertex 9.75 1.23686 18
      vertex 11.5449 0.583557 18
    endloop
  endfacet
  facet normal -0.866025 -0.5 0
    outer loop
      vertex 8.28676 2.46467 18
      vertex 7.33169 4.11889 25
      vertex 7.33169 4.11889 18
    endloop
  endfacet
  facet normal -0.866025 -0.5 0
    outer loop
      vertex 7.33169 4.11889 25
      vertex 8.28676 2.46467 18
      vertex 8.28676 2.46467 25
    endloop
  endfacet
  facet normal -0.984808 -0.173648 0
    outer loop
      vertex 7.33169 4.11889 18
      vertex 7 6 25
      vertex 7 6 18
    endloop
  endfacet
  facet normal -0.984808 -0.173648 0
    outer loop
      vertex 7 6 25
      vertex 7.33169 4.11889 18
      vertex 7.33169 4.11889 25
    endloop
  endfacet
  facet normal -0.34202 0.939693 0
    outer loop
      vertex 11.5449 11.4164 18
      vertex 9.75 10.7631 25
      vertex 11.5449 11.4164 25
    endloop
  endfacet
  facet normal -0.34202 0.939693 0
    outer loop
      vertex 9.75 10.7631 25
      vertex 11.5449 11.4164 18
      vertex 9.75 10.7631 18
    endloop
  endfacet
  facet normal 0.866026 -0.5 0
    outer loop
      vertex 16.7132 2.46467 25
      vertex 17.6683 4.11889 18
      vertex 17.6683 4.11889 25
    endloop
  endfacet
  facet normal 0.866026 -0.5 0
    outer loop
      vertex 17.6683 4.11889 18
      vertex 16.7132 2.46467 25
      vertex 16.7132 2.46467 18
    endloop
  endfacet
  facet normal 0.34202 -0.939693 0
    outer loop
      vertex 13.4551 0.583557 18
      vertex 15.25 1.23686 25
      vertex 13.4551 0.583557 25
    endloop
  endfacet
  facet normal 0.34202 -0.939693 0
    outer loop
      vertex 15.25 1.23686 25
      vertex 13.4551 0.583557 18
      vertex 15.25 1.23686 18
    endloop
  endfacet
  facet normal 0 -1 0
    outer loop
      vertex 11.5449 0.583557 18
      vertex 13.4551 0.583557 25
      vertex 11.5449 0.583557 25
    endloop
  endfacet
  facet normal 0 -1 -0
    outer loop
      vertex 13.4551 0.583557 25
      vertex 11.5449 0.583557 18
      vertex 13.4551 0.583557 18
    endloop
  endfacet
  facet normal -0.642788 -0.766044 0
    outer loop
      vertex 8.28676 2.46467 18
      vertex 9.75 1.23686 25
      vertex 8.28676 2.46467 25
    endloop
  endfacet
  facet normal -0.642788 -0.766044 -0
    outer loop
      vertex 9.75 1.23686 25
      vertex 8.28676 2.46467 18
      vertex 9.75 1.23686 18
    endloop
  endfacet
  facet normal 0.642787 -0.766045 0
    outer loop
      vertex 15.25 1.23686 18
      vertex 16.7132 2.46467 25
      vertex 15.25 1.23686 25
    endloop
  endfacet
  facet normal 0.642787 -0.766045 0
    outer loop
      vertex 16.7132 2.46467 25
      vertex 15.25 1.23686 18
      vertex 16.7132 2.46467 18
    endloop
  endfacet
  facet normal 0.984808 0.173649 0
    outer loop
      vertex 18 54 25
      vertex 17.6683 55.8811 18
      vertex 17.6683 55.8811 25
    endloop
  endfacet
  facet normal 0.984808 0.173649 0
    outer loop
      vertex 17.6683 55.8811 18
      vertex 18 54 25
      vertex 18 54 18
    endloop
  endfacet
  facet normal 0 1 -0
    outer loop
      vertex 13.4551 59.4164 18
      vertex 11.5449 59.4164 25
      vertex 13.4551 59.4164 25
    endloop
  endfacet
  facet normal 0 1 0
    outer loop
      vertex 11.5449 59.4164 25
      vertex 13.4551 59.4164 18
      vertex 11.5449 59.4164 18
    endloop
  endfacet
  facet normal 0.642787 0.766045 -0
    outer loop
      vertex 16.7132 57.5353 18
      vertex 15.25 58.7631 25
      vertex 16.7132 57.5353 25
    endloop
  endfacet
  facet normal 0.642787 0.766045 0
    outer loop
      vertex 15.25 58.7631 25
      vertex 16.7132 57.5353 18
      vertex 15.25 58.7631 18
    endloop
  endfacet
  facet normal 0.866025 0.5 0
    outer loop
      vertex 17.6683 55.8811 25
      vertex 16.7132 57.5353 18
      vertex 16.7132 57.5353 25
    endloop
  endfacet
  facet normal 0.866025 0.5 0
    outer loop
      vertex 16.7132 57.5353 18
      vertex 17.6683 55.8811 25
      vertex 17.6683 55.8811 18
    endloop
  endfacet
  facet normal 0.342021 0.939692 -0
    outer loop
      vertex 15.25 58.7631 18
      vertex 13.4551 59.4164 25
      vertex 15.25 58.7631 25
    endloop
  endfacet
  facet normal 0.342021 0.939692 0
    outer loop
      vertex 13.4551 59.4164 25
      vertex 15.25 58.7631 18
      vertex 13.4551 59.4164 18
    endloop
  endfacet
  facet normal -0.866025 0.5 0
    outer loop
      vertex 7.33169 55.8811 18
      vertex 8.28676 57.5353 25
      vertex 8.28676 57.5353 18
    endloop
  endfacet
  facet normal -0.866025 0.5 0
    outer loop
      vertex 8.28676 57.5353 25
      vertex 7.33169 55.8811 18
      vertex 7.33169 55.8811 25
    endloop
  endfacet
  facet normal 0 0 -1
    outer loop
      vertex 17.6683 52.1189 18
      vertex 13.6824 53.7464 18
      vertex 13.8667 54 18
    endloop
  endfacet
  facet normal 0 0 -1
    outer loop
      vertex 12.9223 52.7002 18
      vertex 15.25 49.2369 18
      vertex 13.4551 48.5836 18
    endloop
  endfacet
  facet normal 0 0 -1
    outer loop
      vertex 16.7132 50.4647 18
      vertex 12.9223 52.7002 18
      vertex 13.6824 53.7464 18
    endloop
  endfacet
  facet normal 0 0 -1
    outer loop
      vertex 11.5449 48.5836 18
      vertex 12.9223 52.7002 18
      vertex 13.4551 48.5836 18
    endloop
  endfacet
  facet normal -0 0 -1
    outer loop
      vertex 12.9223 52.7002 18
      vertex 11.5449 48.5836 18
      vertex 11.6925 53.0998 18
    endloop
  endfacet
  facet normal 0 0 -1
    outer loop
      vertex 9.75 49.2369 18
      vertex 11.6925 53.0998 18
      vertex 11.5449 48.5836 18
    endloop
  endfacet
  facet normal 0 0 -1
    outer loop
      vertex 7 54 18
      vertex 11.3943 54.8033 18
      vertex 11.3943 53.1967 18
    endloop
  endfacet
  facet normal -0 0 -1
    outer loop
      vertex 11.6925 53.0998 18
      vertex 9.75 49.2369 18
      vertex 11.3943 53.1967 18
    endloop
  endfacet
  facet normal 0 0 -1
    outer loop
      vertex 8.28676 50.4647 18
      vertex 11.3943 53.1967 18
      vertex 9.75 49.2369 18
    endloop
  endfacet
  facet normal 0 0 -1
    outer loop
      vertex 7.33169 52.1189 18
      vertex 11.3943 53.1967 18
      vertex 8.28676 50.4647 18
    endloop
  endfacet
  facet normal 0 0 -1
    outer loop
      vertex 11.3943 54.8033 18
      vertex 8.28676 57.5353 18
      vertex 9.75 58.7631 18
    endloop
  endfacet
  facet normal 0 0 -1
    outer loop
      vertex 7 54 18
      vertex 11.3943 53.1967 18
      vertex 7.33169 52.1189 18
    endloop
  endfacet
  facet normal 0 0 -1
    outer loop
      vertex 11.3943 54.8033 18
      vertex 7.33169 55.8811 18
      vertex 8.28676 57.5353 18
    endloop
  endfacet
  facet normal -0 0 -1
    outer loop
      vertex 11.3943 54.8033 18
      vertex 7 54 18
      vertex 7.33169 55.8811 18
    endloop
  endfacet
  facet normal 0 0 -1
    outer loop
      vertex 13.8667 54 18
      vertex 18 54 18
      vertex 17.6683 52.1189 18
    endloop
  endfacet
  facet normal 0 0 -1
    outer loop
      vertex 13.6824 53.7464 18
      vertex 17.6683 52.1189 18
      vertex 16.7132 50.4647 18
    endloop
  endfacet
  facet normal 0 0 -1
    outer loop
      vertex 18 54 18
      vertex 13.8667 54 18
      vertex 17.6683 55.8811 18
    endloop
  endfacet
  facet normal -0 0 -1
    outer loop
      vertex 17.6683 55.8811 18
      vertex 13.8667 54 18
      vertex 16.7132 57.5353 18
    endloop
  endfacet
  facet normal 0 0 -1
    outer loop
      vertex 12.9223 52.7002 18
      vertex 16.7132 50.4647 18
      vertex 15.25 49.2369 18
    endloop
  endfacet
  facet normal 0 0 -1
    outer loop
      vertex 13.1066 55.0462 18
      vertex 16.7132 57.5353 18
      vertex 13.8667 54 18
    endloop
  endfacet
  facet normal 0 0 -1
    outer loop
      vertex 12.9223 55.2998 18
      vertex 16.7132 57.5353 18
      vertex 13.1066 55.0462 18
    endloop
  endfacet
  facet normal -0 0 -1
    outer loop
      vertex 16.7132 57.5353 18
      vertex 12.9223 55.2998 18
      vertex 15.25 58.7631 18
    endloop
  endfacet
  facet normal -0 0 -1
    outer loop
      vertex 15.25 58.7631 18
      vertex 12.9223 55.2998 18
      vertex 13.4551 59.4164 18
    endloop
  endfacet
  facet normal 0 0 -1
    outer loop
      vertex 11.5449 59.4164 18
      vertex 12.9223 55.2998 18
      vertex 11.6925 54.9002 18
    endloop
  endfacet
  facet normal 0 0 -1
    outer loop
      vertex 12.9223 55.2998 18
      vertex 11.5449 59.4164 18
      vertex 13.4551 59.4164 18
    endloop
  endfacet
  facet normal 0 0 -1
    outer loop
      vertex 9.75 58.7631 18
      vertex 11.6925 54.9002 18
      vertex 11.3943 54.8033 18
    endloop
  endfacet
  facet normal 0 0 -1
    outer loop
      vertex 11.6925 54.9002 18
      vertex 9.75 58.7631 18
      vertex 11.5449 59.4164 18
    endloop
  endfacet
  facet normal -0.984808 0.173648 0
    outer loop
      vertex 7 54 18
      vertex 7.33169 55.8811 25
      vertex 7.33169 55.8811 18
    endloop
  endfacet
  facet normal -0.984808 0.173648 0
    outer loop
      vertex 7.33169 55.8811 25
      vertex 7 54 18
      vertex 7 54 25
    endloop
  endfacet
  facet normal -0.642787 0.766045 0
    outer loop
      vertex 9.75 58.7631 18
      vertex 8.28676 57.5353 25
      vertex 9.75 58.7631 25
    endloop
  endfacet
  facet normal -0.642787 0.766045 0
    outer loop
      vertex 8.28676 57.5353 25
      vertex 9.75 58.7631 18
      vertex 8.28676 57.5353 18
    endloop
  endfacet
  facet normal -0.342021 -0.939692 0
    outer loop
      vertex 9.75 49.2369 18
      vertex 11.5449 48.5836 25
      vertex 9.75 49.2369 25
    endloop
  endfacet
  facet normal -0.342021 -0.939692 -0
    outer loop
      vertex 11.5449 48.5836 25
      vertex 9.75 49.2369 18
      vertex 11.5449 48.5836 18
    endloop
  endfacet
  facet normal -0.866025 -0.5 0
    outer loop
      vertex 8.28676 50.4647 18
      vertex 7.33169 52.1189 25
      vertex 7.33169 52.1189 18
    endloop
  endfacet
  facet normal -0.866025 -0.5 0
    outer loop
      vertex 7.33169 52.1189 25
      vertex 8.28676 50.4647 18
      vertex 8.28676 50.4647 25
    endloop
  endfacet
  facet normal -0.984808 -0.173648 0
    outer loop
      vertex 7.33169 52.1189 18
      vertex 7 54 25
      vertex 7 54 18
    endloop
  endfacet
  facet normal -0.984808 -0.173648 0
    outer loop
      vertex 7 54 25
      vertex 7.33169 52.1189 18
      vertex 7.33169 52.1189 25
    endloop
  endfacet
  facet normal -0.342021 0.939692 0
    outer loop
      vertex 11.5449 59.4164 18
      vertex 9.75 58.7631 25
      vertex 11.5449 59.4164 25
    endloop
  endfacet
  facet normal -0.342021 0.939692 0
    outer loop
      vertex 9.75 58.7631 25
      vertex 11.5449 59.4164 18
      vertex 9.75 58.7631 18
    endloop
  endfacet
  facet normal 0.866025 -0.5 0
    outer loop
      vertex 16.7132 50.4647 25
      vertex 17.6683 52.1189 18
      vertex 17.6683 52.1189 25
    endloop
  endfacet
  facet normal 0.866025 -0.5 0
    outer loop
      vertex 17.6683 52.1189 18
      vertex 16.7132 50.4647 25
      vertex 16.7132 50.4647 18
    endloop
  endfacet
  facet normal 0.342021 -0.939692 0
    outer loop
      vertex 13.4551 48.5836 18
      vertex 15.25 49.2369 25
      vertex 13.4551 48.5836 25
    endloop
  endfacet
  facet normal 0.342021 -0.939692 0
    outer loop
      vertex 15.25 49.2369 25
      vertex 13.4551 48.5836 18
      vertex 15.25 49.2369 18
    endloop
  endfacet
  facet normal 0 -1 0
    outer loop
      vertex 11.5449 48.5836 18
      vertex 13.4551 48.5836 25
      vertex 11.5449 48.5836 25
    endloop
  endfacet
  facet normal 0 -1 -0
    outer loop
      vertex 13.4551 48.5836 25
      vertex 11.5449 48.5836 18
      vertex 13.4551 48.5836 18
    endloop
  endfacet
  facet normal -0.642787 -0.766045 0
    outer loop
      vertex 8.28676 50.4647 18
      vertex 9.75 49.2369 25
      vertex 8.28676 50.4647 25
    endloop
  endfacet
  facet normal -0.642787 -0.766045 -0
    outer loop
      vertex 9.75 49.2369 25
      vertex 8.28676 50.4647 18
      vertex 9.75 49.2369 18
    endloop
  endfacet
  facet normal 0.984808 -0.173649 0
    outer loop
      vertex 17.6683 52.1189 25
      vertex 18 54 18
      vertex 18 54 25
    endloop
  endfacet
  facet normal 0.984808 -0.173649 0
    outer loop
      vertex 18 54 18
      vertex 17.6683 52.1189 25
      vertex 17.6683 52.1189 18
    endloop
  endfacet
  facet normal 0.642787 -0.766045 0
    outer loop
      vertex 15.25 49.2369 18
      vertex 16.7132 50.4647 25
      vertex 15.25 49.2369 25
    endloop
  endfacet
  facet normal 0.642787 -0.766045 0
    outer loop
      vertex 16.7132 50.4647 25
      vertex 15.25 49.2369 18
      vertex 16.7132 50.4647 18
    endloop
  endfacet
  facet normal -0.525483 -0.66913 0.525483
    outer loop
      vertex 20 43.2762 25
      vertex 20 44.4913 26.5473
      vertex 18.4527 44.4913 25
    endloop
  endfacet
  facet normal 0.287606 0.913545 -0.287606
    outer loop
      vertex 20 11.4544 53.5218
      vertex 0 13.1125 38.7886
      vertex 20 13.1125 58.7886
    endloop
  endfacet
  facet normal 0.287606 0.913545 -0.287606
    outer loop
      vertex 0 13.1125 38.7886
      vertex 20 11.4544 53.5218
      vertex 0 11.4544 33.5218
    endloop
  endfacet
  facet normal -0.415627 0.809017 0.415627
    outer loop
      vertex 18.4527 15.5087 25
      vertex 20 13.1125 31.2114
      vertex 20 15.5087 26.5473
    endloop
  endfacet
  facet normal -0.415627 0.809017 0.415627
    outer loop
      vertex 20 13.1125 31.2114
      vertex 18.4527 15.5087 25
      vertex 13.7886 13.1125 25
    endloop
  endfacet
  facet normal -0.147016 0.978148 0.147016
    outer loop
      vertex 8.52181 11.4544 25
      vertex 20 10.6068 42.1174
      vertex 20 11.4544 36.4782
    endloop
  endfacet
  facet normal -0.147016 0.978148 0.147016
    outer loop
      vertex 20 10.6068 42.1174
      vertex 8.52181 11.4544 25
      vertex 2.8826 10.6068 25
    endloop
  endfacet
  facet normal -0.415627 -0.809017 0.415627
    outer loop
      vertex 13.7886 46.8875 25
      vertex 20 44.4913 26.5473
      vertex 20 46.8875 31.2114
    endloop
  endfacet
  facet normal -0.415627 -0.809017 0.415627
    outer loop
      vertex 20 44.4913 26.5473
      vertex 13.7886 46.8875 25
      vertex 18.4527 44.4913 25
    endloop
  endfacet
  facet normal 0.672499 0.309017 -0.672498
    outer loop
      vertex 9.80701 22.0686 60
      vertex 0 25.9457 51.9745
      vertex 8.02546 25.9457 60
    endloop
  endfacet
  facet normal 0.672499 0.309017 -0.672498
    outer loop
      vertex 0 25.9457 51.9745
      vertex 9.80701 22.0686 60
      vertex 0 22.0686 50.193
    endloop
  endfacet
  facet normal 0 1 -0
    outer loop
      vertex 20 10.6068 42.1174
      vertex 0 10.6068 27.8826
      vertex 20 10.6068 47.8826
    endloop
  endfacet
  facet normal 0 1 -0
    outer loop
      vertex 2.8826 10.6068 25
      vertex 0 10.6068 27.8826
      vertex 20 10.6068 42.1174
    endloop
  endfacet
  facet normal 0 1 0
    outer loop
      vertex 0 10.6068 27.8826
      vertex 2.8826 10.6068 25
      vertex 0 10.6068 25
    endloop
  endfacet
  facet normal 0.525483 0.669131 -0.525483
    outer loop
      vertex 16.5473 15.5087 60
      vertex 0 18.5382 47.3104
      vertex 12.6896 18.5382 60
    endloop
  endfacet
  facet normal 0.525483 0.669131 -0.525483
    outer loop
      vertex 0 18.5382 47.3104
      vertex 16.5473 15.5087 60
      vertex 0 15.5087 43.4527
    endloop
  endfacet
  facet normal 0.612372 -0.5 -0.612372
    outer loop
      vertex 0 37.9314 50.193
      vertex 12.6896 41.4618 60
      vertex 9.80701 37.9314 60
    endloop
  endfacet
  facet normal 0.612372 -0.5 -0.612372
    outer loop
      vertex 12.6896 41.4618 60
      vertex 0 37.9314 50.193
      vertex 0 41.4618 47.3104
    endloop
  endfacet
  facet normal -0.287606 -0.913546 0.287606
    outer loop
      vertex 8.52181 48.5456 25
      vertex 20 46.8875 31.2114
      vertex 20 48.5456 36.4782
    endloop
  endfacet
  facet normal -0.287606 -0.913546 0.287606
    outer loop
      vertex 20 46.8875 31.2114
      vertex 8.52181 48.5456 25
      vertex 13.7886 46.8875 25
    endloop
  endfacet
  facet normal -0.287606 0.913545 0.287606
    outer loop
      vertex 13.7886 13.1125 25
      vertex 20 11.4544 36.4782
      vertex 20 13.1125 31.2114
    endloop
  endfacet
  facet normal -0.287606 0.913545 0.287606
    outer loop
      vertex 20 11.4544 36.4782
      vertex 13.7886 13.1125 25
      vertex 8.52181 11.4544 25
    endloop
  endfacet
  facet normal -0.525483 0.66913 0.525483
    outer loop
      vertex 20 15.5087 26.5473
      vertex 20 16.7238 25
      vertex 18.4527 15.5087 25
    endloop
  endfacet
  facet normal 0.147016 -0.978148 -0.147016
    outer loop
      vertex 0 48.5456 33.5218
      vertex 20 49.3932 47.8826
      vertex 20 48.5456 53.5218
    endloop
  endfacet
  facet normal 0.147016 -0.978148 -0.147016
    outer loop
      vertex 20 49.3932 47.8826
      vertex 0 48.5456 33.5218
      vertex 0 49.3932 27.8826
    endloop
  endfacet
  facet normal 0.703233 0.104528 -0.703233
    outer loop
      vertex 8.02546 25.9457 60
      vertex 2 30 54.5772
      vertex 7.42284 30 60
    endloop
  endfacet
  facet normal 0.703233 0.104528 -0.703233
    outer loop
      vertex 2 30 54.5772
      vertex 8.02546 25.9457 60
      vertex 2 26.5 54.0569
    endloop
  endfacet
  facet normal 0.703233 0.10453 -0.703233
    outer loop
      vertex 0 25.9457 51.9745
      vertex 2 26.5 54.0569
      vertex 8.02546 25.9457 60
    endloop
  endfacet
  facet normal 0.703233 0.104531 -0.703233
    outer loop
      vertex 2 26.5 54.0569
      vertex 0 25.9457 51.9745
      vertex 0 26.5 52.0569
    endloop
  endfacet
  facet normal 0.703233 -0.104531 -0.703233
    outer loop
      vertex 8.02546 34.0543 60
      vertex 2 33.5 54.0569
      vertex 0 34.0543 51.9745
    endloop
  endfacet
  facet normal 0.703233 -0.104528 -0.703233
    outer loop
      vertex 2 30 54.5772
      vertex 8.02546 34.0543 60
      vertex 7.42284 30 60
    endloop
  endfacet
  facet normal 0.703233 -0.104528 -0.703233
    outer loop
      vertex 8.02546 34.0543 60
      vertex 2 30 54.5772
      vertex 2 33.5 54.0569
    endloop
  endfacet
  facet normal 0.703233 -0.104531 -0.703233
    outer loop
      vertex 0 34.0543 51.9745
      vertex 2 33.5 54.0569
      vertex 0 33.5 52.0569
    endloop
  endfacet
  facet normal 0.672499 -0.309017 -0.672499
    outer loop
      vertex 0 34.0543 51.9745
      vertex 9.80701 37.9314 60
      vertex 8.02546 34.0543 60
    endloop
  endfacet
  facet normal 0.672499 -0.309017 -0.672499
    outer loop
      vertex 9.80701 37.9314 60
      vertex 0 34.0543 51.9745
      vertex 0 37.9314 50.193
    endloop
  endfacet
  facet normal 0.612372 0.5 -0.612372
    outer loop
      vertex 12.6896 18.5382 60
      vertex 0 22.0686 50.193
      vertex 9.80701 22.0686 60
    endloop
  endfacet
  facet normal 0.612372 0.5 -0.612372
    outer loop
      vertex 0 22.0686 50.193
      vertex 12.6896 18.5382 60
      vertex 0 18.5382 47.3104
    endloop
  endfacet
  facet normal 0.415627 0.809017 -0.415627
    outer loop
      vertex 20 13.1125 58.7886
      vertex 16.5473 15.5087 60
      vertex 20 13.7349 60
    endloop
  endfacet
  facet normal 0.415627 0.809017 -0.415627
    outer loop
      vertex 20 13.1125 58.7886
      vertex 0 15.5087 43.4527
      vertex 16.5473 15.5087 60
    endloop
  endfacet
  facet normal 0.415627 0.809017 -0.415627
    outer loop
      vertex 0 15.5087 43.4527
      vertex 20 13.1125 58.7886
      vertex 0 13.1125 38.7886
    endloop
  endfacet
  facet normal 0.147016 0.978148 -0.147016
    outer loop
      vertex 20 10.6068 47.8826
      vertex 0 11.4544 33.5218
      vertex 20 11.4544 53.5218
    endloop
  endfacet
  facet normal 0.147016 0.978148 -0.147016
    outer loop
      vertex 0 11.4544 33.5218
      vertex 20 10.6068 47.8826
      vertex 0 10.6068 27.8826
    endloop
  endfacet
  facet normal -0.147016 -0.978148 0.147016
    outer loop
      vertex 2.8826 49.3932 25
      vertex 20 48.5456 36.4782
      vertex 20 49.3932 42.1174
    endloop
  endfacet
  facet normal -0.147016 -0.978148 0.147016
    outer loop
      vertex 20 48.5456 36.4782
      vertex 2.8826 49.3932 25
      vertex 8.52181 48.5456 25
    endloop
  endfacet
  facet normal 0.525483 -0.66913 -0.525483
    outer loop
      vertex 0 41.4618 47.3104
      vertex 16.5473 44.4913 60
      vertex 12.6896 41.4618 60
    endloop
  endfacet
  facet normal 0.525483 -0.66913 -0.525483
    outer loop
      vertex 16.5473 44.4913 60
      vertex 0 41.4618 47.3104
      vertex 0 44.4913 43.4527
    endloop
  endfacet
  facet normal 0.415626 -0.809017 -0.415628
    outer loop
      vertex 16.5473 44.4913 60
      vertex 20 46.8875 58.7886
      vertex 20 46.2651 60
    endloop
  endfacet
  facet normal 0.415627 -0.809017 -0.415627
    outer loop
      vertex 0 44.4913 43.4527
      vertex 20 46.8875 58.7886
      vertex 16.5473 44.4913 60
    endloop
  endfacet
  facet normal 0.415627 -0.809017 -0.415627
    outer loop
      vertex 20 46.8875 58.7886
      vertex 0 44.4913 43.4527
      vertex 0 46.8875 38.7886
    endloop
  endfacet
  facet normal 0.287606 -0.913546 -0.287606
    outer loop
      vertex 0 46.8875 38.7886
      vertex 20 48.5456 53.5218
      vertex 20 46.8875 58.7886
    endloop
  endfacet
  facet normal 0.287606 -0.913546 -0.287606
    outer loop
      vertex 20 48.5456 53.5218
      vertex 0 46.8875 38.7886
      vertex 0 48.5456 33.5218
    endloop
  endfacet
  facet normal 0 -1 0
    outer loop
      vertex 0 49.3932 27.8826
      vertex 20 49.3932 42.1174
      vertex 20 49.3932 47.8826
    endloop
  endfacet
  facet normal 0 -1 0
    outer loop
      vertex 2.8826 49.3932 25
      vertex 0 49.3932 27.8826
      vertex 0 49.3932 25
    endloop
  endfacet
  facet normal 0 -1 0
    outer loop
      vertex 0 49.3932 27.8826
      vertex 2.8826 49.3932 25
      vertex 20 49.3932 42.1174
    endloop
  endfacet
  facet normal -0.831286 0.555447 0.0210122
    outer loop
      vertex 15.581 2.91903 60
      vertex 16.2003 3.84596 60
      vertex 14.9749 3.52513 20
    endloop
  endfacet
  facet normal -0.980569 -0.195048 0.0210122
    outer loop
      vertex 16.8571 6 60
      vertex 16.6397 7.09338 60
      vertex 16 6 20
    endloop
  endfacet
  facet normal -0.980568 -0.195049 0.0210122
    outer loop
      vertex 15.7336 7.33939 20
      vertex 16.6397 7.09338 60
      vertex 16.5255 7.66741 60
    endloop
  endfacet
  facet normal -0.980569 -0.195048 0.0210122
    outer loop
      vertex 16.6397 7.09338 60
      vertex 15.7336 7.33939 20
      vertex 16 6 20
    endloop
  endfacet
  facet normal -0.555447 0.831286 0.0210122
    outer loop
      vertex 15.581 2.91903 60
      vertex 15 3 41.4393
      vertex 15 2.53085 60
    endloop
  endfacet
  facet normal -0.555448 0.831286 0.0210122
    outer loop
      vertex 15 3 41.4393
      vertex 14.9749 3.52513 20
      vertex 14.8374 3 37.1408
    endloop
  endfacet
  facet normal -0.555447 0.831286 0.0210122
    outer loop
      vertex 14.9749 3.52513 20
      vertex 15 3 41.4393
      vertex 15.581 2.91903 60
    endloop
  endfacet
  facet normal -0.195048 -0.980569 0.0210122
    outer loop
      vertex 13.5934 10.1397 60
      vertex 12.5 10.3571 60
      vertex 12.5 9.5 20
    endloop
  endfacet
  facet normal -0.195047 0.980569 0.0210122
    outer loop
      vertex 12.7733 2.34009 30
      vertex 12.5 2.5 20
      vertex 12.5 2.28571 30
    endloop
  endfacet
  facet normal -0.980569 0.195048 0.0210122
    outer loop
      vertex 15.7336 4.66061 20
      vertex 16.6397 4.90662 60
      vertex 16 6 20
    endloop
  endfacet
  facet normal -0.980569 0.195048 0.0210122
    outer loop
      vertex 16.6397 4.90662 60
      vertex 15.7336 4.66061 20
      vertex 16.5255 4.33259 60
    endloop
  endfacet
  facet normal -0.980569 0.195047 0.0210122
    outer loop
      vertex 16.6397 4.90662 60
      vertex 16.8571 6 60
      vertex 16 6 20
    endloop
  endfacet
  facet normal 0.195047 -0.980569 0.0210122
    outer loop
      vertex 12.5 9.5 20
      vertex 12.5 10.3571 60
      vertex 11.4066 10.1397 60
    endloop
  endfacet
  facet normal -0.555447 -0.831286 0.0210122
    outer loop
      vertex 14.9749 8.47487 20
      vertex 15.581 9.08097 60
      vertex 14.654 9.70032 60
    endloop
  endfacet
  facet normal 0.555447 0.831286 0.0210122
    outer loop
      vertex 11.0786 2.56845 30
      vertex 11.1606 2.76642 20
      vertex 10.4327 3 30
    endloop
  endfacet
  facet normal 0.555448 0.831286 0.0210122
    outer loop
      vertex 10.4327 3 30
      vertex 10.0251 3.52513 20
      vertex 10.1626 3 37.1408
    endloop
  endfacet
  facet normal 0.555447 0.831286 0.0210122
    outer loop
      vertex 10.0251 3.52513 20
      vertex 10.4327 3 30
      vertex 11.1606 2.76642 20
    endloop
  endfacet
  facet normal 0.195047 0.980569 0.0210122
    outer loop
      vertex 11.3519 2.51408 30
      vertex 11.1606 2.76642 20
      vertex 11.0786 2.56845 30
    endloop
  endfacet
  facet normal 0.195047 0.980569 0.0210122
    outer loop
      vertex 12.5 2.5 20
      vertex 11.3519 2.51408 30
      vertex 12.5 2.28571 30
    endloop
  endfacet
  facet normal 0.195047 0.980569 0.0210122
    outer loop
      vertex 11.3519 2.51408 30
      vertex 12.5 2.5 20
      vertex 11.1606 2.76642 20
    endloop
  endfacet
  facet normal 0.831286 0.555448 0.0210122
    outer loop
      vertex 8.79968 3.84596 60
      vertex 9.26642 4.66061 20
      vertex 8.47452 4.33259 60
    endloop
  endfacet
  facet normal 0.831286 0.555447 0.0210122
    outer loop
      vertex 9.26642 4.66061 20
      vertex 8.79968 3.84596 60
      vertex 10.0251 3.52513 20
    endloop
  endfacet
  facet normal 0.195047 -0.980569 0.0210122
    outer loop
      vertex 11.1606 9.23358 20
      vertex 11.4066 10.1397 60
      vertex 10.8326 10.0255 60
    endloop
  endfacet
  facet normal 0.195048 -0.980569 0.0210122
    outer loop
      vertex 11.4066 10.1397 60
      vertex 11.1606 9.23358 20
      vertex 12.5 9.5 20
    endloop
  endfacet
  facet normal 0.980569 -0.195047 0.0210122
    outer loop
      vertex 8.36034 7.09338 60
      vertex 9.26642 7.33939 20
      vertex 8.47452 7.66741 60
    endloop
  endfacet
  facet normal 0.980569 -0.195047 0.0210122
    outer loop
      vertex 9.26642 7.33939 20
      vertex 8.36034 7.09338 60
      vertex 9 6 20
    endloop
  endfacet
  facet normal -0.555448 0.831286 0.0210122
    outer loop
      vertex 14.9749 3.52513 20
      vertex 14.5673 3 30
      vertex 14.8374 3 37.1408
    endloop
  endfacet
  facet normal -0.555447 0.831286 0.0210122
    outer loop
      vertex 13.8394 2.76642 20
      vertex 14.5673 3 30
      vertex 14.9749 3.52513 20
    endloop
  endfacet
  facet normal -0.555447 0.831286 0.0210122
    outer loop
      vertex 14.5673 3 30
      vertex 13.8394 2.76642 20
      vertex 13.9214 2.56845 30
    endloop
  endfacet
  facet normal -0.831286 0.555448 0.0210122
    outer loop
      vertex 15.7336 4.66061 20
      vertex 16.2003 3.84596 60
      vertex 16.5255 4.33259 60
    endloop
  endfacet
  facet normal -0.831286 0.555447 0.0210122
    outer loop
      vertex 16.2003 3.84596 60
      vertex 15.7336 4.66061 20
      vertex 14.9749 3.52513 20
    endloop
  endfacet
  facet normal -0.555447 -0.831286 0.0210122
    outer loop
      vertex 13.8394 9.23358 20
      vertex 14.654 9.70032 60
      vertex 14.1674 10.0255 60
    endloop
  endfacet
  facet normal -0.555447 -0.831286 0.0210122
    outer loop
      vertex 14.654 9.70032 60
      vertex 13.8394 9.23358 20
      vertex 14.9749 8.47487 20
    endloop
  endfacet
  facet normal 0 0 1
    outer loop
      vertex 14 6 20
      vertex 16 6 20
      vertex 15.7336 7.33939 20
    endloop
  endfacet
  facet normal 0 0 1
    outer loop
      vertex 14 6 20
      vertex 15.7336 7.33939 20
      vertex 14.9749 8.47487 20
    endloop
  endfacet
  facet normal 0 0 1
    outer loop
      vertex 16 6 20
      vertex 14 6 20
      vertex 15.7336 4.66061 20
    endloop
  endfacet
  facet normal 0 0 1
    outer loop
      vertex 15.7336 4.66061 20
      vertex 14 6 20
      vertex 14.9749 3.52513 20
    endloop
  endfacet
  facet normal 0 0 1
    outer loop
      vertex 12.9635 7.42658 20
      vertex 14.9749 8.47487 20
      vertex 13.8394 9.23358 20
    endloop
  endfacet
  facet normal 0 0 1
    outer loop
      vertex 14.9749 8.47487 20
      vertex 12.9635 7.42658 20
      vertex 14 6 20
    endloop
  endfacet
  facet normal 0 0 1
    outer loop
      vertex 12.5 9.5 20
      vertex 12.9635 7.42658 20
      vertex 13.8394 9.23358 20
    endloop
  endfacet
  facet normal -0 0 1
    outer loop
      vertex 11.1606 9.23358 20
      vertex 12.9635 7.42658 20
      vertex 12.5 9.5 20
    endloop
  endfacet
  facet normal -0 0 1
    outer loop
      vertex 10.0251 8.47487 20
      vertex 11.2865 6.88168 20
      vertex 11.1606 9.23358 20
    endloop
  endfacet
  facet normal 0 0 1
    outer loop
      vertex 12.9635 7.42658 20
      vertex 11.1606 9.23358 20
      vertex 11.2865 6.88168 20
    endloop
  endfacet
  facet normal -0 0 1
    outer loop
      vertex 12.9635 4.57341 20
      vertex 14.9749 3.52513 20
      vertex 14 6 20
    endloop
  endfacet
  facet normal 0 0 1
    outer loop
      vertex 14.9749 3.52513 20
      vertex 12.9635 4.57341 20
      vertex 13.8394 2.76642 20
    endloop
  endfacet
  facet normal 0 0 1
    outer loop
      vertex 12.9635 4.57341 20
      vertex 12.5 2.5 20
      vertex 13.8394 2.76642 20
    endloop
  endfacet
  facet normal 0 0 1
    outer loop
      vertex 11.1606 2.76642 20
      vertex 12.9635 4.57341 20
      vertex 11.2865 5.11832 20
    endloop
  endfacet
  facet normal 0 0 1
    outer loop
      vertex 12.9635 4.57341 20
      vertex 11.1606 2.76642 20
      vertex 12.5 2.5 20
    endloop
  endfacet
  facet normal -0 0 1
    outer loop
      vertex 9.26642 7.33939 20
      vertex 11.2865 6.88168 20
      vertex 10.0251 8.47487 20
    endloop
  endfacet
  facet normal 0 0 1
    outer loop
      vertex 9 6 20
      vertex 11.2865 6.88168 20
      vertex 9.26642 7.33939 20
    endloop
  endfacet
  facet normal 0 0 1
    outer loop
      vertex 11.2865 5.11832 20
      vertex 10.0251 3.52513 20
      vertex 11.1606 2.76642 20
    endloop
  endfacet
  facet normal 0 0 1
    outer loop
      vertex 11.2865 6.88168 20
      vertex 9 6 20
      vertex 11.2865 5.11832 20
    endloop
  endfacet
  facet normal 0 0 1
    outer loop
      vertex 11.2865 5.11832 20
      vertex 9.26642 4.66061 20
      vertex 10.0251 3.52513 20
    endloop
  endfacet
  facet normal 0 0 1
    outer loop
      vertex 11.2865 5.11832 20
      vertex 9 6 20
      vertex 9.26642 4.66061 20
    endloop
  endfacet
  facet normal 0.980569 -0.195047 0.0210122
    outer loop
      vertex 9 6 20
      vertex 8.36034 7.09338 60
      vertex 8.14286 6 60
    endloop
  endfacet
  facet normal 0.555447 0.831286 0.0210122
    outer loop
      vertex 10 3 41.4392
      vertex 9.41903 2.91903 60
      vertex 10 2.53084 60
    endloop
  endfacet
  facet normal 0.555447 0.831286 0.0210122
    outer loop
      vertex 10 3 41.4392
      vertex 10.0251 3.52513 20
      vertex 9.41903 2.91903 60
    endloop
  endfacet
  facet normal 0.555448 0.831286 0.0210122
    outer loop
      vertex 10.0251 3.52513 20
      vertex 10 3 41.4392
      vertex 10.1626 3 37.1408
    endloop
  endfacet
  facet normal 0.831286 0.555447 0.0210122
    outer loop
      vertex 9.41903 2.91903 60
      vertex 10.0251 3.52513 20
      vertex 8.79968 3.84596 60
    endloop
  endfacet
  facet normal 0.831286 -0.555447 0.0210122
    outer loop
      vertex 8.47452 7.66741 60
      vertex 10.0251 8.47487 20
      vertex 8.79968 8.15404 60
    endloop
  endfacet
  facet normal 0.831286 -0.555447 0.0210122
    outer loop
      vertex 10.0251 8.47487 20
      vertex 8.47452 7.66741 60
      vertex 9.26642 7.33939 20
    endloop
  endfacet
  facet normal -0.195047 0.980569 0.0210122
    outer loop
      vertex 13.8394 2.76642 20
      vertex 12.7733 2.34009 30
      vertex 13.9214 2.56845 30
    endloop
  endfacet
  facet normal -0.195047 0.980569 0.0210122
    outer loop
      vertex 12.7733 2.34009 30
      vertex 13.8394 2.76642 20
      vertex 12.5 2.5 20
    endloop
  endfacet
  facet normal -0.831286 -0.555447 0.0210122
    outer loop
      vertex 16.2003 8.15404 60
      vertex 15.581 9.08097 60
      vertex 14.9749 8.47487 20
    endloop
  endfacet
  facet normal -0.831286 -0.555447 0.0210122
    outer loop
      vertex 14.9749 8.47487 20
      vertex 16.5255 7.66741 60
      vertex 16.2003 8.15404 60
    endloop
  endfacet
  facet normal -0.831286 -0.555447 0.0210122
    outer loop
      vertex 16.5255 7.66741 60
      vertex 14.9749 8.47487 20
      vertex 15.7336 7.33939 20
    endloop
  endfacet
  facet normal 0.980569 0.195047 0.0210122
    outer loop
      vertex 8.25704 5.42597 60
      vertex 9 6 20
      vertex 8.14286 6 60
    endloop
  endfacet
  facet normal 0.980569 0.195047 0.0210122
    outer loop
      vertex 9 6 20
      vertex 8.25704 5.42597 60
      vertex 9.26642 4.66061 20
    endloop
  endfacet
  facet normal 0.980569 0.195047 0.0210122
    outer loop
      vertex 8.47452 4.33259 60
      vertex 9.26642 4.66061 20
      vertex 8.25704 5.42597 60
    endloop
  endfacet
  facet normal 0.831286 -0.555447 0.0210122
    outer loop
      vertex 10.0251 8.47487 20
      vertex 9.41903 9.08097 60
      vertex 8.79968 8.15404 60
    endloop
  endfacet
  facet normal 0.555447 -0.831286 0.0210122
    outer loop
      vertex 10.0251 8.47487 20
      vertex 10.346 9.70032 60
      vertex 9.41903 9.08097 60
    endloop
  endfacet
  facet normal -0.195048 -0.980569 0.0210122
    outer loop
      vertex 13.8394 9.23358 20
      vertex 13.5934 10.1397 60
      vertex 12.5 9.5 20
    endloop
  endfacet
  facet normal -0.195047 -0.980569 0.0210122
    outer loop
      vertex 13.5934 10.1397 60
      vertex 13.8394 9.23358 20
      vertex 14.1674 10.0255 60
    endloop
  endfacet
  facet normal 0.555447 -0.831286 0.0210122
    outer loop
      vertex 10.0251 8.47487 20
      vertex 10.8326 10.0255 60
      vertex 10.346 9.70032 60
    endloop
  endfacet
  facet normal 0.555447 -0.831286 0.0210122
    outer loop
      vertex 10.8326 10.0255 60
      vertex 10.0251 8.47487 20
      vertex 11.1606 9.23358 20
    endloop
  endfacet
  facet normal 1 -0 0
    outer loop
      vertex 10 0 60
      vertex 10 3 41.4392
      vertex 10 2.53084 60
    endloop
  endfacet
  facet normal 1 0 0
    outer loop
      vertex 10 3 41.4392
      vertex 10 0 60
      vertex 10 0 30
    endloop
  endfacet
  facet normal 1 0 0
    outer loop
      vertex 10 3 41.4392
      vertex 10 0 30
      vertex 10 3 30
    endloop
  endfacet
  facet normal -1 0 0
    outer loop
      vertex 15 0 30
      vertex 15 3 41.4393
      vertex 15 3 30
    endloop
  endfacet
  facet normal -1 0 0
    outer loop
      vertex 15 0 60
      vertex 15 3 41.4393
      vertex 15 0 30
    endloop
  endfacet
  facet normal -1 0 0
    outer loop
      vertex 15 3 41.4393
      vertex 15 0 60
      vertex 15 2.53085 60
    endloop
  endfacet
  facet normal 0 0 1
    outer loop
      vertex 13.9214 2.56845 30
      vertex 15 3 30
      vertex 14.5673 3 30
    endloop
  endfacet
  facet normal 0 0 1
    outer loop
      vertex 15 3 30
      vertex 13.9214 2.56845 30
      vertex 15 0 30
    endloop
  endfacet
  facet normal -0 0 1
    outer loop
      vertex 12.7733 2.34009 30
      vertex 15 0 30
      vertex 13.9214 2.56845 30
    endloop
  endfacet
  facet normal -0 0 1
    outer loop
      vertex 12.5 2.28571 30
      vertex 15 0 30
      vertex 12.7733 2.34009 30
    endloop
  endfacet
  facet normal 0 0 1
    outer loop
      vertex 10 0 30
      vertex 12.5 2.28571 30
      vertex 11.3519 2.51408 30
    endloop
  endfacet
  facet normal 0 0 1
    outer loop
      vertex 10 0 30
      vertex 11.3519 2.51408 30
      vertex 11.0786 2.56845 30
    endloop
  endfacet
  facet normal -0 0 1
    outer loop
      vertex 10 3 30
      vertex 11.0786 2.56845 30
      vertex 10.4327 3 30
    endloop
  endfacet
  facet normal 0 0 1
    outer loop
      vertex 10 0 30
      vertex 11.0786 2.56845 30
      vertex 10 3 30
    endloop
  endfacet
  facet normal 0 0 1
    outer loop
      vertex 12.5 2.28571 30
      vertex 10 0 30
      vertex 15 0 30
    endloop
  endfacet
  facet normal 0 -1 0
    outer loop
      vertex 10 3 30
      vertex 10.1626 3 37.1408
      vertex 10 3 41.4392
    endloop
  endfacet
  facet normal 0 -1 -0
    outer loop
      vertex 10.1626 3 37.1408
      vertex 10 3 30
      vertex 10.4327 3 30
    endloop
  endfacet
  facet normal 0 -1 0
    outer loop
      vertex 14.8374 3 37.1408
      vertex 15 3 30
      vertex 15 3 41.4393
    endloop
  endfacet
  facet normal 0 -1 0
    outer loop
      vertex 15 3 30
      vertex 14.8374 3 37.1408
      vertex 14.5673 3 30
    endloop
  endfacet
  facet normal -0.809017 -0.587786 0
    outer loop
      vertex 14 6 18
      vertex 12.9635 7.42658 20
      vertex 12.9635 7.42658 18
    endloop
  endfacet
  facet normal -0.809017 -0.587786 0
    outer loop
      vertex 12.9635 7.42658 20
      vertex 14 6 18
      vertex 14 6 20
    endloop
  endfacet
  facet normal 1 -0 0
    outer loop
      vertex 11.2865 5.11832 20
      vertex 11.2865 6.88168 18
      vertex 11.2865 6.88168 20
    endloop
  endfacet
  facet normal 1 0 0
    outer loop
      vertex 11.2865 6.88168 18
      vertex 11.2865 5.11832 20
      vertex 11.2865 5.11832 18
    endloop
  endfacet
  facet normal 0.309017 -0.951057 0
    outer loop
      vertex 11.2865 6.88168 18
      vertex 12.9635 7.42658 20
      vertex 11.2865 6.88168 20
    endloop
  endfacet
  facet normal 0.309017 -0.951057 0
    outer loop
      vertex 12.9635 7.42658 20
      vertex 11.2865 6.88168 18
      vertex 12.9635 7.42658 18
    endloop
  endfacet
  facet normal 0.309017 0.951057 -0
    outer loop
      vertex 12.9635 4.57341 18
      vertex 11.2865 5.11832 20
      vertex 12.9635 4.57341 20
    endloop
  endfacet
  facet normal 0.309017 0.951057 0
    outer loop
      vertex 11.2865 5.11832 20
      vertex 12.9635 4.57341 18
      vertex 11.2865 5.11832 18
    endloop
  endfacet
  facet normal -0.809017 0.587785 0
    outer loop
      vertex 12.9635 4.57341 18
      vertex 14 6 20
      vertex 14 6 18
    endloop
  endfacet
  facet normal -0.809017 0.587785 0
    outer loop
      vertex 14 6 20
      vertex 12.9635 4.57341 18
      vertex 12.9635 4.57341 20
    endloop
  endfacet
  facet normal -0.831287 0.555447 0.0210122
    outer loop
      vertex 15.581 50.919 60
      vertex 16.2003 51.846 60
      vertex 14.9749 51.5251 20
    endloop
  endfacet
  facet normal -0.980569 -0.195048 0.0210122
    outer loop
      vertex 16.8571 54 60
      vertex 16.6397 55.0934 60
      vertex 16 54 20
    endloop
  endfacet
  facet normal -0.980568 -0.195049 0.0210122
    outer loop
      vertex 15.7336 55.3394 20
      vertex 16.6397 55.0934 60
      vertex 16.5255 55.6674 60
    endloop
  endfacet
  facet normal -0.980569 -0.195047 0.0210122
    outer loop
      vertex 16.6397 55.0934 60
      vertex 15.7336 55.3394 20
      vertex 16 54 20
    endloop
  endfacet
  facet normal -0.555447 0.831286 0.0210122
    outer loop
      vertex 15.581 50.919 60
      vertex 14.9749 51.5251 20
      vertex 14.654 50.2997 60
    endloop
  endfacet
  facet normal -0.195058 -0.980567 0.0210123
    outer loop
      vertex 12.7733 57.6599 30
      vertex 12.5 57.7143 30
      vertex 12.5 57.5 20
    endloop
  endfacet
  facet normal -0.195047 0.980569 0.0210122
    outer loop
      vertex 13.5934 49.8603 60
      vertex 12.5 50.5 20
      vertex 12.5 49.6429 60
    endloop
  endfacet
  facet normal -0.980569 0.195047 0.0210122
    outer loop
      vertex 15.7336 52.6606 20
      vertex 16.6397 52.9066 60
      vertex 16 54 20
    endloop
  endfacet
  facet normal -0.980569 0.195048 0.0210122
    outer loop
      vertex 16.6397 52.9066 60
      vertex 15.7336 52.6606 20
      vertex 16.5255 52.3326 60
    endloop
  endfacet
  facet normal -0.980569 0.195048 0.0210122
    outer loop
      vertex 16.6397 52.9066 60
      vertex 16.8571 54 60
      vertex 16 54 20
    endloop
  endfacet
  facet normal 0.195058 -0.980567 0.0210123
    outer loop
      vertex 12.5 57.5 20
      vertex 12.5 57.7143 30
      vertex 12.2267 57.6599 30
    endloop
  endfacet
  facet normal -0.555442 -0.83129 0.0210125
    outer loop
      vertex 14.8947 56.7812 30
      vertex 14.9749 56.4749 20
      vertex 15 56.7109 30
    endloop
  endfacet
  facet normal -0.555447 -0.831287 0.0210122
    outer loop
      vertex 15 56.7109 30
      vertex 15.581 57.081 60
      vertex 15 57.4692 60
    endloop
  endfacet
  facet normal -0.555457 -0.83128 0.0210123
    outer loop
      vertex 15.581 57.081 60
      vertex 15 56.7109 30
      vertex 14.9749 56.4749 20
    endloop
  endfacet
  facet normal 0.555445 0.831288 0.0210122
    outer loop
      vertex 11.1606 50.7664 20
      vertex 10.346 50.2997 60
      vertex 10.8326 49.9745 60
    endloop
  endfacet
  facet normal 0.555446 0.831287 0.0210122
    outer loop
      vertex 10.346 50.2997 60
      vertex 11.1606 50.7664 20
      vertex 10.0251 51.5251 20
    endloop
  endfacet
  facet normal 0.195048 0.980569 0.0210122
    outer loop
      vertex 11.926 49.757 60
      vertex 11.1606 50.7664 20
      vertex 10.8326 49.9745 60
    endloop
  endfacet
  facet normal 0.195049 0.980568 0.0210122
    outer loop
      vertex 12.5 50.5 20
      vertex 11.926 49.757 60
      vertex 12.5 49.6429 60
    endloop
  endfacet
  facet normal 0.195048 0.980569 0.0210122
    outer loop
      vertex 11.926 49.757 60
      vertex 12.5 50.5 20
      vertex 11.1606 50.7664 20
    endloop
  endfacet
  facet normal 0.831285 0.555449 0.0210122
    outer loop
      vertex 8.79968 51.846 60
      vertex 9.26642 52.6606 20
      vertex 8.47452 52.3326 60
    endloop
  endfacet
  facet normal 0.831286 0.555447 0.0210122
    outer loop
      vertex 9.26642 52.6606 20
      vertex 8.79968 51.846 60
      vertex 10.0251 51.5251 20
    endloop
  endfacet
  facet normal 0.195045 -0.980569 0.0210123
    outer loop
      vertex 11.1606 57.2336 20
      vertex 12.2267 57.6599 30
      vertex 11.0786 57.4316 30
    endloop
  endfacet
  facet normal 0.195048 -0.980569 0.021012
    outer loop
      vertex 12.2267 57.6599 30
      vertex 11.1606 57.2336 20
      vertex 12.5 57.5 20
    endloop
  endfacet
  facet normal 0.980569 -0.195047 0.0210122
    outer loop
      vertex 8.36034 55.0934 60
      vertex 9.26642 55.3394 20
      vertex 8.47452 55.6674 60
    endloop
  endfacet
  facet normal 0.980569 -0.195047 0.0210122
    outer loop
      vertex 9.26642 55.3394 20
      vertex 8.36034 55.0934 60
      vertex 9 54 20
    endloop
  endfacet
  facet normal -0.555445 0.831288 0.0210122
    outer loop
      vertex 14.9749 51.5251 20
      vertex 14.1674 49.9745 60
      vertex 14.654 50.2997 60
    endloop
  endfacet
  facet normal -0.555446 0.831287 0.0210122
    outer loop
      vertex 14.1674 49.9745 60
      vertex 14.9749 51.5251 20
      vertex 13.8394 50.7664 20
    endloop
  endfacet
  facet normal -0.831285 0.555449 0.0210122
    outer loop
      vertex 15.7336 52.6606 20
      vertex 16.2003 51.846 60
      vertex 16.5255 52.3326 60
    endloop
  endfacet
  facet normal -0.831286 0.555447 0.0210122
    outer loop
      vertex 16.2003 51.846 60
      vertex 15.7336 52.6606 20
      vertex 14.9749 51.5251 20
    endloop
  endfacet
  facet normal -0.555447 -0.831286 0.0210123
    outer loop
      vertex 13.8394 57.2336 20
      vertex 14.8947 56.7812 30
      vertex 13.9214 57.4316 30
    endloop
  endfacet
  facet normal -0.555448 -0.831286 0.0210123
    outer loop
      vertex 14.8947 56.7812 30
      vertex 13.8394 57.2336 20
      vertex 14.9749 56.4749 20
    endloop
  endfacet
  facet normal 0 0 1
    outer loop
      vertex 13.8 54 20
      vertex 16 54 20
      vertex 15.7336 55.3394 20
    endloop
  endfacet
  facet normal 0 0 1
    outer loop
      vertex 13.1781 54.8559 20
      vertex 15.7336 55.3394 20
      vertex 14.9749 56.4749 20
    endloop
  endfacet
  facet normal 0 0 1
    outer loop
      vertex 16 54 20
      vertex 13.8 54 20
      vertex 15.7336 52.6606 20
    endloop
  endfacet
  facet normal 0 0 1
    outer loop
      vertex 12.9017 55.2364 20
      vertex 14.9749 56.4749 20
      vertex 13.8394 57.2336 20
    endloop
  endfacet
  facet normal -0 0 1
    outer loop
      vertex 13.5236 53.6196 20
      vertex 15.7336 52.6606 20
      vertex 13.8 54 20
    endloop
  endfacet
  facet normal 0 0 1
    outer loop
      vertex 15.7336 52.6606 20
      vertex 13.5236 53.6196 20
      vertex 14.9749 51.5251 20
    endloop
  endfacet
  facet normal 0 0 1
    outer loop
      vertex 15.7336 55.3394 20
      vertex 13.1781 54.8559 20
      vertex 13.8 54 20
    endloop
  endfacet
  facet normal 0 0 1
    outer loop
      vertex 14.9749 56.4749 20
      vertex 12.9017 55.2364 20
      vertex 13.1781 54.8559 20
    endloop
  endfacet
  facet normal 0 0 1
    outer loop
      vertex 12.5 57.5 20
      vertex 12.9017 55.2364 20
      vertex 13.8394 57.2336 20
    endloop
  endfacet
  facet normal -0 0 1
    outer loop
      vertex 11.1606 57.2336 20
      vertex 12.9017 55.2364 20
      vertex 12.5 57.5 20
    endloop
  endfacet
  facet normal 0 0 1
    outer loop
      vertex 12.9017 55.2364 20
      vertex 11.1606 57.2336 20
      vertex 11.8955 54.9094 20
    endloop
  endfacet
  facet normal -0 0 1
    outer loop
      vertex 10.0251 56.4749 20
      vertex 11.4483 54.7641 20
      vertex 11.1606 57.2336 20
    endloop
  endfacet
  facet normal 0 0 1
    outer loop
      vertex 11.8955 54.9094 20
      vertex 11.1606 57.2336 20
      vertex 11.4483 54.7641 20
    endloop
  endfacet
  facet normal -0 0 1
    outer loop
      vertex 12.9017 52.7636 20
      vertex 14.9749 51.5251 20
      vertex 13.5236 53.6196 20
    endloop
  endfacet
  facet normal 0 0 1
    outer loop
      vertex 14.9749 51.5251 20
      vertex 12.9017 52.7636 20
      vertex 13.8394 50.7664 20
    endloop
  endfacet
  facet normal 0 0 1
    outer loop
      vertex 12.9017 52.7636 20
      vertex 12.5 50.5 20
      vertex 13.8394 50.7664 20
    endloop
  endfacet
  facet normal 0 0 1
    outer loop
      vertex 11.1606 50.7664 20
      vertex 12.9017 52.7636 20
      vertex 11.8955 53.0906 20
    endloop
  endfacet
  facet normal 0 0 1
    outer loop
      vertex 11.1606 50.7664 20
      vertex 11.8955 53.0906 20
      vertex 11.4483 53.2359 20
    endloop
  endfacet
  facet normal 0 0 1
    outer loop
      vertex 12.9017 52.7636 20
      vertex 11.1606 50.7664 20
      vertex 12.5 50.5 20
    endloop
  endfacet
  facet normal -0 0 1
    outer loop
      vertex 9.26642 55.3394 20
      vertex 11.4483 54.7641 20
      vertex 10.0251 56.4749 20
    endloop
  endfacet
  facet normal 0 0 1
    outer loop
      vertex 9 54 20
      vertex 11.4483 54.7641 20
      vertex 9.26642 55.3394 20
    endloop
  endfacet
  facet normal 0 0 1
    outer loop
      vertex 11.4483 53.2359 20
      vertex 10.0251 51.5251 20
      vertex 11.1606 50.7664 20
    endloop
  endfacet
  facet normal 0 0 1
    outer loop
      vertex 11.4483 54.7641 20
      vertex 9 54 20
      vertex 11.4483 53.2359 20
    endloop
  endfacet
  facet normal 0 0 1
    outer loop
      vertex 11.4483 53.2359 20
      vertex 9.26642 52.6606 20
      vertex 10.0251 51.5251 20
    endloop
  endfacet
  facet normal 0 0 1
    outer loop
      vertex 11.4483 53.2359 20
      vertex 9 54 20
      vertex 9.26642 52.6606 20
    endloop
  endfacet
  facet normal 0.980569 -0.195047 0.0210122
    outer loop
      vertex 9 54 20
      vertex 8.36034 55.0934 60
      vertex 8.14286 54 60
    endloop
  endfacet
  facet normal 0.555447 0.831286 0.0210122
    outer loop
      vertex 10.346 50.2997 60
      vertex 10.0251 51.5251 20
      vertex 9.41903 50.919 60
    endloop
  endfacet
  facet normal 0.831287 0.555447 0.0210122
    outer loop
      vertex 9.41903 50.919 60
      vertex 10.0251 51.5251 20
      vertex 8.79968 51.846 60
    endloop
  endfacet
  facet normal 0.831287 -0.555446 0.0210122
    outer loop
      vertex 8.47452 55.6674 60
      vertex 10.0251 56.4749 20
      vertex 8.79968 56.154 60
    endloop
  endfacet
  facet normal 0.831286 -0.555448 0.0210121
    outer loop
      vertex 10.0251 56.4749 20
      vertex 8.47452 55.6674 60
      vertex 9.26642 55.3394 20
    endloop
  endfacet
  facet normal -0.195049 0.980568 0.0210122
    outer loop
      vertex 13.8394 50.7664 20
      vertex 13.5934 49.8603 60
      vertex 14.1674 49.9745 60
    endloop
  endfacet
  facet normal -0.195048 0.980569 0.0210122
    outer loop
      vertex 13.5934 49.8603 60
      vertex 13.8394 50.7664 20
      vertex 12.5 50.5 20
    endloop
  endfacet
  facet normal -0.831287 -0.555447 0.0210122
    outer loop
      vertex 16.2003 56.154 60
      vertex 15.581 57.081 60
      vertex 14.9749 56.4749 20
    endloop
  endfacet
  facet normal -0.831287 -0.555446 0.0210122
    outer loop
      vertex 14.9749 56.4749 20
      vertex 16.5255 55.6674 60
      vertex 16.2003 56.154 60
    endloop
  endfacet
  facet normal -0.831286 -0.555448 0.0210121
    outer loop
      vertex 16.5255 55.6674 60
      vertex 14.9749 56.4749 20
      vertex 15.7336 55.3394 20
    endloop
  endfacet
  facet normal 0.980569 0.195047 0.0210122
    outer loop
      vertex 8.25704 53.426 60
      vertex 9 54 20
      vertex 8.14286 54 60
    endloop
  endfacet
  facet normal 0.980569 0.195047 0.0210122
    outer loop
      vertex 9 54 20
      vertex 8.25704 53.426 60
      vertex 9.26642 52.6606 20
    endloop
  endfacet
  facet normal 0.980569 0.195046 0.0210122
    outer loop
      vertex 8.47452 52.3326 60
      vertex 9.26642 52.6606 20
      vertex 8.25704 53.426 60
    endloop
  endfacet
  facet normal 0.831287 -0.555447 0.0210122
    outer loop
      vertex 10.0251 56.4749 20
      vertex 9.41903 57.081 60
      vertex 8.79968 56.154 60
    endloop
  endfacet
  facet normal 0.555446 -0.831287 0.0210122
    outer loop
      vertex 9.41903 57.081 60
      vertex 10 56.7109 30
      vertex 10 57.4692 60
    endloop
  endfacet
  facet normal 0.555446 -0.831287 0.0210124
    outer loop
      vertex 10 56.7109 30
      vertex 10.0251 56.4749 20
      vertex 10.1053 56.7812 30
    endloop
  endfacet
  facet normal 0.555454 -0.831282 0.0210123
    outer loop
      vertex 10.0251 56.4749 20
      vertex 10 56.7109 30
      vertex 9.41903 57.081 60
    endloop
  endfacet
  facet normal -0.195048 -0.980569 0.021012
    outer loop
      vertex 13.8394 57.2336 20
      vertex 12.7733 57.6599 30
      vertex 12.5 57.5 20
    endloop
  endfacet
  facet normal -0.195045 -0.980569 0.0210123
    outer loop
      vertex 12.7733 57.6599 30
      vertex 13.8394 57.2336 20
      vertex 13.9214 57.4316 30
    endloop
  endfacet
  facet normal 0.555447 -0.831286 0.0210123
    outer loop
      vertex 10.0251 56.4749 20
      vertex 11.0786 57.4316 30
      vertex 10.1053 56.7812 30
    endloop
  endfacet
  facet normal 0.555448 -0.831286 0.0210123
    outer loop
      vertex 11.0786 57.4316 30
      vertex 10.0251 56.4749 20
      vertex 11.1606 57.2336 20
    endloop
  endfacet
  facet normal 1 -0 0
    outer loop
      vertex 10 57.4692 60
      vertex 10 60 30
      vertex 10 60 60
    endloop
  endfacet
  facet normal 1 0 0
    outer loop
      vertex 10 60 30
      vertex 10 57.4692 60
      vertex 10 56.7109 30
    endloop
  endfacet
  facet normal -1 0 0
    outer loop
      vertex 15 60 30
      vertex 15 57.4692 60
      vertex 15 60 60
    endloop
  endfacet
  facet normal -1 0 -0
    outer loop
      vertex 15 57.4692 60
      vertex 15 60 30
      vertex 15 56.7109 30
    endloop
  endfacet
  facet normal 0 0 1
    outer loop
      vertex 15 60 30
      vertex 14.8947 56.7812 30
      vertex 15 56.7109 30
    endloop
  endfacet
  facet normal 0 0 1
    outer loop
      vertex 15 60 30
      vertex 13.9214 57.4316 30
      vertex 14.8947 56.7812 30
    endloop
  endfacet
  facet normal 0 0 1
    outer loop
      vertex 15 60 30
      vertex 12.7733 57.6599 30
      vertex 13.9214 57.4316 30
    endloop
  endfacet
  facet normal 0 0 1
    outer loop
      vertex 15 60 30
      vertex 12.5 57.7143 30
      vertex 12.7733 57.6599 30
    endloop
  endfacet
  facet normal -0 0 1
    outer loop
      vertex 10 60 30
      vertex 12.5 57.7143 30
      vertex 15 60 30
    endloop
  endfacet
  facet normal 0 0 1
    outer loop
      vertex 12.5 57.7143 30
      vertex 10 60 30
      vertex 12.2267 57.6599 30
    endloop
  endfacet
  facet normal 0 0 1
    outer loop
      vertex 12.2267 57.6599 30
      vertex 10 60 30
      vertex 11.0786 57.4316 30
    endloop
  endfacet
  facet normal 0 0 1
    outer loop
      vertex 10 60 30
      vertex 10.1053 56.7812 30
      vertex 11.0786 57.4316 30
    endloop
  endfacet
  facet normal 0 0 1
    outer loop
      vertex 10.1053 56.7812 30
      vertex 10 60 30
      vertex 10 56.7109 30
    endloop
  endfacet
  facet normal -0.808722 -0.587572 -0.0269576
    outer loop
      vertex 13.8667 54 18
      vertex 13.1781 54.8559 20
      vertex 13.1066 55.0462 18
    endloop
  endfacet
  facet normal -0.808722 -0.587573 -0.0269574
    outer loop
      vertex 13.1781 54.8559 20
      vertex 13.8667 54 18
      vertex 13.8 54 20
    endloop
  endfacet
  facet normal 0.308907 0.95071 -0.0269574
    outer loop
      vertex 11.6925 53.0998 18
      vertex 11.4483 53.2359 20
      vertex 11.8955 53.0906 20
    endloop
  endfacet
  facet normal 0.30891 0.950709 -0.026957
    outer loop
      vertex 11.4483 53.2359 20
      vertex 11.6925 53.0998 18
      vertex 11.3943 53.1967 18
    endloop
  endfacet
  facet normal 0.308907 -0.95071 -0.0269574
    outer loop
      vertex 12.9223 55.2998 18
      vertex 11.8955 54.9094 20
      vertex 11.6925 54.9002 18
    endloop
  endfacet
  facet normal 0.308907 -0.95071 -0.0269575
    outer loop
      vertex 11.8955 54.9094 20
      vertex 12.9223 55.2998 18
      vertex 12.9017 55.2364 20
    endloop
  endfacet
  facet normal 0.308903 0.950711 -0.0269576
    outer loop
      vertex 12.9223 52.7002 18
      vertex 11.8955 53.0906 20
      vertex 12.9017 52.7636 20
    endloop
  endfacet
  facet normal 0.308904 0.950711 -0.0269572
    outer loop
      vertex 11.8955 53.0906 20
      vertex 12.9223 52.7002 18
      vertex 11.6925 53.0998 18
    endloop
  endfacet
  facet normal 0.308899 -0.950713 -0.0269567
    outer loop
      vertex 11.6925 54.9002 18
      vertex 11.4483 54.7641 20
      vertex 11.3943 54.8033 18
    endloop
  endfacet
  facet normal 0.308899 -0.950713 -0.0269567
    outer loop
      vertex 11.4483 54.7641 20
      vertex 11.6925 54.9002 18
      vertex 11.8955 54.9094 20
    endloop
  endfacet
  facet normal -0.808724 -0.58757 -0.0269575
    outer loop
      vertex 13.1066 55.0462 18
      vertex 12.9017 55.2364 20
      vertex 12.9223 55.2998 18
    endloop
  endfacet
  facet normal -0.808724 -0.587571 -0.0269574
    outer loop
      vertex 12.9017 55.2364 20
      vertex 13.1066 55.0462 18
      vertex 13.1781 54.8559 20
    endloop
  endfacet
  facet normal -0.808723 0.587572 -0.0269574
    outer loop
      vertex 12.9223 52.7002 18
      vertex 13.5236 53.6196 20
      vertex 13.6824 53.7464 18
    endloop
  endfacet
  facet normal -0.808722 0.587573 -0.0269576
    outer loop
      vertex 13.5236 53.6196 20
      vertex 12.9223 52.7002 18
      vertex 12.9017 52.7636 20
    endloop
  endfacet
  facet normal -0.808724 0.58757 -0.0269574
    outer loop
      vertex 13.6824 53.7464 18
      vertex 13.8 54 20
      vertex 13.8667 54 18
    endloop
  endfacet
  facet normal -0.808724 0.587571 -0.0269576
    outer loop
      vertex 13.8 54 20
      vertex 13.6824 53.7464 18
      vertex 13.5236 53.6196 20
    endloop
  endfacet
  facet normal 0.999637 0 -0.0269572
    outer loop
      vertex 11.4483 53.2359 20
      vertex 11.3943 54.8033 18
      vertex 11.4483 54.7641 20
    endloop
  endfacet
  facet normal 0.999637 0 -0.0269572
    outer loop
      vertex 11.3943 54.8033 18
      vertex 11.4483 53.2359 20
      vertex 11.3943 53.1967 18
    endloop
  endfacet
  facet normal 1 0 0
    outer loop
      vertex 2 30 54.5772
      vertex 2 33.5 46
      vertex 2 33.5 54.0569
    endloop
  endfacet
  facet normal 1 0 0
    outer loop
      vertex 2 26.5 46
      vertex 2 30 54.5772
      vertex 2 26.5 54.0569
    endloop
  endfacet
  facet normal 1 0 0
    outer loop
      vertex 2 30 54.5772
      vertex 2 26.5 46
      vertex 2 33.5 46
    endloop
  endfacet
  facet normal 0 0 -1
    outer loop
      vertex 0 26.5 46
      vertex 2 33.5 46
      vertex 2 26.5 46
    endloop
  endfacet
  facet normal -0 0 -1
    outer loop
      vertex 2 33.5 46
      vertex 0 26.5 46
      vertex 0 33.5 46
    endloop
  endfacet
  facet normal 0 -1 0
    outer loop
      vertex 2 26.5 46
      vertex 0 26.5 52.0569
      vertex 0 26.5 46
    endloop
  endfacet
  facet normal 0 -1 0
    outer loop
      vertex 0 26.5 52.0569
      vertex 2 26.5 46
      vertex 2 26.5 54.0569
    endloop
  endfacet
  facet normal 0 1 -0
    outer loop
      vertex 2 33.5 46
      vertex 0 33.5 52.0569
      vertex 2 33.5 54.0569
    endloop
  endfacet
  facet normal 0 1 0
    outer loop
      vertex 0 33.5 52.0569
      vertex 2 33.5 46
      vertex 0 33.5 46
    endloop
  endfacet
endsolid OpenSCAD_Model
