solid OpenSCAD_Model
  facet normal -1 0 0
    outer loop
      vertex 0 0 0
      vertex 0 18.5382 2.6896
      vertex 0 21.8323 0
    endloop
  endfacet
  facet normal -1 0 0
    outer loop
      vertex 0 0 0
      vertex 0 15.903 6.04513
      vertex 0 18.5382 2.6896
    endloop
  endfacet
  facet normal -1 0 0
    outer loop
      vertex 0 0 0
      vertex 0 15.5087 6.54727
      vertex 0 15.903 6.04513
    endloop
  endfacet
  facet normal -1 0 0
    outer loop
      vertex 0 0 0
      vertex 0 13.1125 11.2114
      vertex 0 15.5087 6.54727
    endloop
  endfacet
  facet normal -1 0 0
    outer loop
      vertex 0 0 0
      vertex 0 11.4544 16.4782
      vertex 0 13.1125 11.2114
    endloop
  endfacet
  facet normal -1 0 0
    outer loop
      vertex 0 0 25
      vertex 0 11.4544 16.4782
      vertex 0 0 0
    endloop
  endfacet
  facet normal -1 0 0
    outer loop
      vertex 0 11.4544 16.4782
      vertex 0 0 25
      vertex 0 10.6068 22.1174
    endloop
  endfacet
  facet normal -1 0 0
    outer loop
      vertex 0 10.6068 22.1174
      vertex 0 0 25
      vertex 0 10.6068 25
    endloop
  endfacet
  facet normal -1 0 0
    outer loop
      vertex 0 48.5456 16.4782
      vertex 0 60 25
      vertex 0 60 0
    endloop
  endfacet
  facet normal -1 0 0
    outer loop
      vertex 0 60 25
      vertex 0 48.5456 16.4782
      vertex 0 49.3932 22.1174
    endloop
  endfacet
  facet normal -1 0 0
    outer loop
      vertex 0 60 0
      vertex 0 46.8875 11.2114
      vertex 0 48.5456 16.4782
    endloop
  endfacet
  facet normal -1 0 0
    outer loop
      vertex 0 60 0
      vertex 0 44.4913 6.54727
      vertex 0 46.8875 11.2114
    endloop
  endfacet
  facet normal -1 0 0
    outer loop
      vertex 0 60 0
      vertex 0 44.097 6.04513
      vertex 0 44.4913 6.54727
    endloop
  endfacet
  facet normal -1 0 0
    outer loop
      vertex 0 60 0
      vertex 0 41.4618 2.6896
      vertex 0 44.097 6.04513
    endloop
  endfacet
  facet normal -1 0 -0
    outer loop
      vertex 0 41.4618 2.6896
      vertex 0 60 0
      vertex 0 38.1677 0
    endloop
  endfacet
  facet normal -1 -0 0
    outer loop
      vertex 0 60 25
      vertex 0 49.3932 22.1174
      vertex 0 49.3932 25
    endloop
  endfacet
  facet normal 0 0 1
    outer loop
      vertex 20 16.7238 25
      vertex 18.5 6 25
      vertex 20 0 25
    endloop
  endfacet
  facet normal 0 0 1
    outer loop
      vertex 18.1749 7.9482 25
      vertex 20 16.7238 25
      vertex 18.4527 15.5087 25
    endloop
  endfacet
  facet normal 0 0 1
    outer loop
      vertex 20 16.7238 25
      vertex 18.1749 7.9482 25
      vertex 18.5 6 25
    endloop
  endfacet
  facet normal 0 0 1
    outer loop
      vertex 18.4527 15.5087 25
      vertex 17.2348 9.68528 25
      vertex 18.1749 7.9482 25
    endloop
  endfacet
  facet normal 0 0 1
    outer loop
      vertex 18.4527 15.5087 25
      vertex 15.7817 11.023 25
      vertex 17.2348 9.68528 25
    endloop
  endfacet
  facet normal -0 0 1
    outer loop
      vertex 13.7886 13.1125 25
      vertex 15.7817 11.023 25
      vertex 18.4527 15.5087 25
    endloop
  endfacet
  facet normal 0 0 1
    outer loop
      vertex 15.7817 11.023 25
      vertex 13.7886 13.1125 25
      vertex 13.9729 11.8164 25
    endloop
  endfacet
  facet normal 0 0 1
    outer loop
      vertex 13.7886 13.1125 25
      vertex 12.0045 11.9795 25
      vertex 13.9729 11.8164 25
    endloop
  endfacet
  facet normal 0 0 1
    outer loop
      vertex 13.7886 13.1125 25
      vertex 10.0898 11.4946 25
      vertex 12.0045 11.9795 25
    endloop
  endfacet
  facet normal 0 0 1
    outer loop
      vertex 8.52181 11.4544 25
      vertex 10.0898 11.4946 25
      vertex 13.7886 13.1125 25
    endloop
  endfacet
  facet normal -0 0 1
    outer loop
      vertex 8.52181 11.4544 25
      vertex 8.43631 10.4143 25
      vertex 10.0898 11.4946 25
    endloop
  endfacet
  facet normal 0 0 1
    outer loop
      vertex 8.52181 11.4544 25
      vertex 7.22316 8.85568 25
      vertex 8.43631 10.4143 25
    endloop
  endfacet
  facet normal 0 0 1
    outer loop
      vertex 6.58183 6.98757 25
      vertex 2.8826 10.6068 25
      vertex 6.58183 5.01243 25
    endloop
  endfacet
  facet normal 0 0 1
    outer loop
      vertex 7.22316 8.85568 25
      vertex 2.8826 10.6068 25
      vertex 6.58183 6.98757 25
    endloop
  endfacet
  facet normal -0 0 1
    outer loop
      vertex 2.8826 10.6068 25
      vertex 7.22316 8.85568 25
      vertex 8.52181 11.4544 25
    endloop
  endfacet
  facet normal -0 0 1
    outer loop
      vertex 18.1749 4.0518 25
      vertex 20 0 25
      vertex 18.5 6 25
    endloop
  endfacet
  facet normal -0 0 1
    outer loop
      vertex 17.2348 2.31472 25
      vertex 20 0 25
      vertex 18.1749 4.0518 25
    endloop
  endfacet
  facet normal -0 0 1
    outer loop
      vertex 15.7817 0.977 25
      vertex 20 0 25
      vertex 17.2348 2.31472 25
    endloop
  endfacet
  facet normal -0 0 1
    outer loop
      vertex 13.9729 0.183598 25
      vertex 20 0 25
      vertex 15.7817 0.977 25
    endloop
  endfacet
  facet normal -0 0 1
    outer loop
      vertex 12.0045 0.0204926 25
      vertex 20 0 25
      vertex 13.9729 0.183598 25
    endloop
  endfacet
  facet normal -0 0 1
    outer loop
      vertex 0 10.6068 25
      vertex 6.58183 5.01243 25
      vertex 2.8826 10.6068 25
    endloop
  endfacet
  facet normal 0 0 1
    outer loop
      vertex 6.58183 5.01243 25
      vertex 0 10.6068 25
      vertex 0 0 25
    endloop
  endfacet
  facet normal 0 0 1
    outer loop
      vertex 6.58183 5.01243 25
      vertex 0 0 25
      vertex 7.22316 3.14431 25
    endloop
  endfacet
  facet normal 0 0 1
    outer loop
      vertex 12.0045 0.0204926 25
      vertex 0 0 25
      vertex 20 0 25
    endloop
  endfacet
  facet normal 0 0 1
    outer loop
      vertex 10.0898 0.50536 25
      vertex 0 0 25
      vertex 12.0045 0.0204926 25
    endloop
  endfacet
  facet normal 0 0 1
    outer loop
      vertex 8.43631 1.58566 25
      vertex 0 0 25
      vertex 10.0898 0.50536 25
    endloop
  endfacet
  facet normal 0 0 1
    outer loop
      vertex 7.22316 3.14431 25
      vertex 0 0 25
      vertex 8.43631 1.58566 25
    endloop
  endfacet
  facet normal 0 0 1
    outer loop
      vertex 20 60 25
      vertex 18.5 54 25
      vertex 20 43.2762 25
    endloop
  endfacet
  facet normal 0 0 1
    outer loop
      vertex 20 60 25
      vertex 18.1749 55.9482 25
      vertex 18.5 54 25
    endloop
  endfacet
  facet normal 0 0 1
    outer loop
      vertex 20 60 25
      vertex 17.2348 57.6853 25
      vertex 18.1749 55.9482 25
    endloop
  endfacet
  facet normal 0 0 1
    outer loop
      vertex 20 60 25
      vertex 15.7817 59.023 25
      vertex 17.2348 57.6853 25
    endloop
  endfacet
  facet normal 0 0 1
    outer loop
      vertex 20 60 25
      vertex 13.9729 59.8164 25
      vertex 15.7817 59.023 25
    endloop
  endfacet
  facet normal 0 0 1
    outer loop
      vertex 20 60 25
      vertex 12.0045 59.9795 25
      vertex 13.9729 59.8164 25
    endloop
  endfacet
  facet normal 0 0 1
    outer loop
      vertex 6.58183 54.9876 25
      vertex 2.8826 49.3932 25
      vertex 6.58183 53.0124 25
    endloop
  endfacet
  facet normal 0 0 1
    outer loop
      vertex 0 60 25
      vertex 6.58183 54.9876 25
      vertex 7.22316 56.8557 25
    endloop
  endfacet
  facet normal -0 0 1
    outer loop
      vertex 0 60 25
      vertex 12.0045 59.9795 25
      vertex 20 60 25
    endloop
  endfacet
  facet normal 0 0 1
    outer loop
      vertex 0 60 25
      vertex 10.0898 59.4946 25
      vertex 12.0045 59.9795 25
    endloop
  endfacet
  facet normal 0 0 1
    outer loop
      vertex 0 60 25
      vertex 8.43631 58.4143 25
      vertex 10.0898 59.4946 25
    endloop
  endfacet
  facet normal 0 0 1
    outer loop
      vertex 0 60 25
      vertex 7.22316 56.8557 25
      vertex 8.43631 58.4143 25
    endloop
  endfacet
  facet normal 0 0 1
    outer loop
      vertex 0 49.3932 25
      vertex 6.58183 54.9876 25
      vertex 0 60 25
    endloop
  endfacet
  facet normal 0 0 1
    outer loop
      vertex 6.58183 54.9876 25
      vertex 0 49.3932 25
      vertex 2.8826 49.3932 25
    endloop
  endfacet
  facet normal -0 0 1
    outer loop
      vertex 18.1749 52.0518 25
      vertex 20 43.2762 25
      vertex 18.5 54 25
    endloop
  endfacet
  facet normal 0 0 1
    outer loop
      vertex 20 43.2762 25
      vertex 18.1749 52.0518 25
      vertex 18.4527 44.4913 25
    endloop
  endfacet
  facet normal -0 0 1
    outer loop
      vertex 17.2348 50.3147 25
      vertex 18.4527 44.4913 25
      vertex 18.1749 52.0518 25
    endloop
  endfacet
  facet normal -0 0 1
    outer loop
      vertex 15.7817 48.977 25
      vertex 18.4527 44.4913 25
      vertex 17.2348 50.3147 25
    endloop
  endfacet
  facet normal 0 0 1
    outer loop
      vertex 13.7886 46.8875 25
      vertex 15.7817 48.977 25
      vertex 13.9729 48.1836 25
    endloop
  endfacet
  facet normal 0 0 1
    outer loop
      vertex 15.7817 48.977 25
      vertex 13.7886 46.8875 25
      vertex 18.4527 44.4913 25
    endloop
  endfacet
  facet normal -0 0 1
    outer loop
      vertex 12.0045 48.0205 25
      vertex 13.7886 46.8875 25
      vertex 13.9729 48.1836 25
    endloop
  endfacet
  facet normal 0 0 1
    outer loop
      vertex 10.0898 48.5054 25
      vertex 13.7886 46.8875 25
      vertex 12.0045 48.0205 25
    endloop
  endfacet
  facet normal 0 0 1
    outer loop
      vertex 10.0898 48.5054 25
      vertex 8.52181 48.5456 25
      vertex 13.7886 46.8875 25
    endloop
  endfacet
  facet normal 0 0 1
    outer loop
      vertex 8.43631 49.5857 25
      vertex 8.52181 48.5456 25
      vertex 10.0898 48.5054 25
    endloop
  endfacet
  facet normal 0 0 1
    outer loop
      vertex 7.22316 51.1443 25
      vertex 8.52181 48.5456 25
      vertex 8.43631 49.5857 25
    endloop
  endfacet
  facet normal 0 0 1
    outer loop
      vertex 7.22316 51.1443 25
      vertex 2.8826 49.3932 25
      vertex 8.52181 48.5456 25
    endloop
  endfacet
  facet normal 0 0 1
    outer loop
      vertex 2.8826 49.3932 25
      vertex 7.22316 51.1443 25
      vertex 6.58183 53.0124 25
    endloop
  endfacet
  facet normal 1 0 0
    outer loop
      vertex 20 33.5 22
      vertex 20 26.5 22
      vertex 20 33.5 17.9431
    endloop
  endfacet
  facet normal 1 0 0
    outer loop
      vertex 20 42.731 24.3057
      vertex 20 60 25
      vertex 20 43.2762 25
    endloop
  endfacet
  facet normal 1 0 0
    outer loop
      vertex 20 41.4618 22.6896
      vertex 20 60 25
      vertex 20 42.731 24.3057
    endloop
  endfacet
  facet normal 1 0 0
    outer loop
      vertex 20 60 25
      vertex 20 41.4618 22.6896
      vertex 20 60 0
    endloop
  endfacet
  facet normal 1 -0 0
    outer loop
      vertex 20 37.9314 19.807
      vertex 20 60 0
      vertex 20 41.4618 22.6896
    endloop
  endfacet
  facet normal 1 -0 0
    outer loop
      vertex 20 34.0543 18.0255
      vertex 20 60 0
      vertex 20 37.9314 19.807
    endloop
  endfacet
  facet normal 1 -0 0
    outer loop
      vertex 20 33.5 17.9431
      vertex 20 60 0
      vertex 20 34.0543 18.0255
    endloop
  endfacet
  facet normal 1 0 0
    outer loop
      vertex 20 26.5 17.9431
      vertex 20 33.5 17.9431
      vertex 20 26.5 22
    endloop
  endfacet
  facet normal 1 0 0
    outer loop
      vertex 20 33.5 17.9431
      vertex 20 26.5 17.9431
      vertex 20 60 0
    endloop
  endfacet
  facet normal 1 0 0
    outer loop
      vertex 20 0 0
      vertex 20 26.5 17.9431
      vertex 20 25.9457 18.0255
    endloop
  endfacet
  facet normal 1 0 0
    outer loop
      vertex 20 0 0
      vertex 20 25.9457 18.0255
      vertex 20 22.0686 19.807
    endloop
  endfacet
  facet normal 1 -0 0
    outer loop
      vertex 20 0 25
      vertex 20 17.269 24.3057
      vertex 20 16.7238 25
    endloop
  endfacet
  facet normal 1 0 0
    outer loop
      vertex 20 17.269 24.3057
      vertex 20 0 25
      vertex 20 18.5382 22.6896
    endloop
  endfacet
  facet normal 1 0 0
    outer loop
      vertex 20 0 0
      vertex 20 18.5382 22.6896
      vertex 20 0 25
    endloop
  endfacet
  facet normal 1 0 0
    outer loop
      vertex 20 18.5382 22.6896
      vertex 20 0 0
      vertex 20 22.0686 19.807
    endloop
  endfacet
  facet normal 1 0 0
    outer loop
      vertex 20 26.5 17.9431
      vertex 20 0 0
      vertex 20 60 0
    endloop
  endfacet
  facet normal 0 1 -0
    outer loop
      vertex 20 60 0
      vertex 0 60 25
      vertex 20 60 25
    endloop
  endfacet
  facet normal 0 1 0
    outer loop
      vertex 0 60 25
      vertex 20 60 0
      vertex 0 60 0
    endloop
  endfacet
  facet normal 0 0 -1
    outer loop
      vertex 16.611 52.1697 0
      vertex 20 60 0
      vertex 16.611 7.83031 0
    endloop
  endfacet
  facet normal 0 0 -1
    outer loop
      vertex 20 60 0
      vertex 16.611 52.1697 0
      vertex 17 54 0
    endloop
  endfacet
  facet normal 0 0 -1
    outer loop
      vertex 15.5111 9.34415 0
      vertex 16.611 52.1697 0
      vertex 16.611 7.83031 0
    endloop
  endfacet
  facet normal 0 0 -1
    outer loop
      vertex 15.5111 9.34415 0
      vertex 15.5111 50.6558 0
      vertex 16.611 52.1697 0
    endloop
  endfacet
  facet normal 0 0 -1
    outer loop
      vertex 13.8906 10.2798 0
      vertex 15.5111 50.6558 0
      vertex 15.5111 9.34415 0
    endloop
  endfacet
  facet normal 0 0 -1
    outer loop
      vertex 13.8906 10.2798 0
      vertex 13.8906 49.7202 0
      vertex 15.5111 50.6558 0
    endloop
  endfacet
  facet normal 0 0 -1
    outer loop
      vertex 1.97454 25.9457 0
      vertex 13.8906 10.2798 0
      vertex 12.0296 10.4753 0
    endloop
  endfacet
  facet normal 0 0 -1
    outer loop
      vertex 13.8906 10.2798 0
      vertex 2.57716 30 0
      vertex 13.8906 49.7202 0
    endloop
  endfacet
  facet normal 0 0 -1
    outer loop
      vertex 0.192994 22.0686 0
      vertex 12.0296 10.4753 0
      vertex 10.25 9.89711 0
    endloop
  endfacet
  facet normal 0 0 -1
    outer loop
      vertex 1.97454 34.0543 0
      vertex 13.8906 49.7202 0
      vertex 2.57716 30 0
    endloop
  endfacet
  facet normal 0 0 -1
    outer loop
      vertex 0 21.8323 0
      vertex 10.25 9.89711 0
      vertex 8.85942 8.64503 0
    endloop
  endfacet
  facet normal 0 0 -1
    outer loop
      vertex 13.8906 49.7202 0
      vertex 1.97454 34.0543 0
      vertex 12.0296 49.5247 0
    endloop
  endfacet
  facet normal 0 0 -1
    outer loop
      vertex 0 21.8323 0
      vertex 8.85942 8.64503 0
      vertex 8.09834 6.9356 0
    endloop
  endfacet
  facet normal 0 0 -1
    outer loop
      vertex 0.192994 37.9314 0
      vertex 12.0296 49.5247 0
      vertex 1.97454 34.0543 0
    endloop
  endfacet
  facet normal 0 0 -1
    outer loop
      vertex 16.611 7.83031 0
      vertex 20 0 0
      vertex 17 6 0
    endloop
  endfacet
  facet normal 0 0 -1
    outer loop
      vertex 20 0 0
      vertex 16.611 4.16968 0
      vertex 17 6 0
    endloop
  endfacet
  facet normal 0 0 -1
    outer loop
      vertex 20 0 0
      vertex 15.5111 2.65585 0
      vertex 16.611 4.16968 0
    endloop
  endfacet
  facet normal 0 0 -1
    outer loop
      vertex 20 0 0
      vertex 13.8906 1.72025 0
      vertex 15.5111 2.65585 0
    endloop
  endfacet
  facet normal 0 0 -1
    outer loop
      vertex 20 0 0
      vertex 12.0296 1.52465 0
      vertex 13.8906 1.72025 0
    endloop
  endfacet
  facet normal 0 0 -1
    outer loop
      vertex 0 0 0
      vertex 8.09834 6.9356 0
      vertex 8.09834 5.0644 0
    endloop
  endfacet
  facet normal -0 0 -1
    outer loop
      vertex 12.0296 49.5247 0
      vertex 0.192994 37.9314 0
      vertex 10.25 50.1029 0
    endloop
  endfacet
  facet normal 0 0 -1
    outer loop
      vertex 0 38.1677 0
      vertex 10.25 50.1029 0
      vertex 0.192994 37.9314 0
    endloop
  endfacet
  facet normal 0 0 -1
    outer loop
      vertex 13.8906 10.2798 0
      vertex 1.97454 25.9457 0
      vertex 2.57716 30 0
    endloop
  endfacet
  facet normal 0 0 -1
    outer loop
      vertex 12.0296 10.4753 0
      vertex 0.192994 22.0686 0
      vertex 1.97454 25.9457 0
    endloop
  endfacet
  facet normal 0 0 -1
    outer loop
      vertex 0 0 0
      vertex 8.09834 5.0644 0
      vertex 8.85942 3.35497 0
    endloop
  endfacet
  facet normal 0 0 -1
    outer loop
      vertex 0 0 0
      vertex 12.0296 1.52465 0
      vertex 20 0 0
    endloop
  endfacet
  facet normal 0 0 -1
    outer loop
      vertex 0 0 0
      vertex 10.25 2.10289 0
      vertex 12.0296 1.52465 0
    endloop
  endfacet
  facet normal 0 0 -1
    outer loop
      vertex 0 0 0
      vertex 8.85942 3.35497 0
      vertex 10.25 2.10289 0
    endloop
  endfacet
  facet normal -0 0 -1
    outer loop
      vertex 8.09834 6.9356 0
      vertex 0 0 0
      vertex 0 21.8323 0
    endloop
  endfacet
  facet normal 0 0 -1
    outer loop
      vertex 10.25 9.89711 0
      vertex 0 21.8323 0
      vertex 0.192994 22.0686 0
    endloop
  endfacet
  facet normal 0 0 -1
    outer loop
      vertex 20 0 0
      vertex 16.611 7.83031 0
      vertex 20 60 0
    endloop
  endfacet
  facet normal 0 0 -1
    outer loop
      vertex 16.611 55.8303 0
      vertex 20 60 0
      vertex 17 54 0
    endloop
  endfacet
  facet normal 0 0 -1
    outer loop
      vertex 15.5111 57.3442 0
      vertex 20 60 0
      vertex 16.611 55.8303 0
    endloop
  endfacet
  facet normal 0 0 -1
    outer loop
      vertex 13.8906 58.2798 0
      vertex 20 60 0
      vertex 15.5111 57.3442 0
    endloop
  endfacet
  facet normal 0 0 -1
    outer loop
      vertex 12.0296 58.4753 0
      vertex 20 60 0
      vertex 13.8906 58.2798 0
    endloop
  endfacet
  facet normal -0 0 -1
    outer loop
      vertex 10.25 50.1029 0
      vertex 0 38.1677 0
      vertex 8.85942 51.355 0
    endloop
  endfacet
  facet normal -0 0 -1
    outer loop
      vertex 8.85942 51.355 0
      vertex 0 38.1677 0
      vertex 8.09834 53.0644 0
    endloop
  endfacet
  facet normal 0 0 -1
    outer loop
      vertex 0 60 0
      vertex 8.09834 53.0644 0
      vertex 0 38.1677 0
    endloop
  endfacet
  facet normal 0 0 -1
    outer loop
      vertex 8.09834 53.0644 0
      vertex 0 60 0
      vertex 8.09834 54.9356 0
    endloop
  endfacet
  facet normal 0 0 -1
    outer loop
      vertex 12.0296 58.4753 0
      vertex 0 60 0
      vertex 20 60 0
    endloop
  endfacet
  facet normal 0 0 -1
    outer loop
      vertex 10.25 57.8971 0
      vertex 0 60 0
      vertex 12.0296 58.4753 0
    endloop
  endfacet
  facet normal 0 0 -1
    outer loop
      vertex 8.85942 56.645 0
      vertex 0 60 0
      vertex 10.25 57.8971 0
    endloop
  endfacet
  facet normal 0 0 -1
    outer loop
      vertex 8.09834 54.9356 0
      vertex 0 60 0
      vertex 8.85942 56.645 0
    endloop
  endfacet
  facet normal 0 -1 0
    outer loop
      vertex 0 0 0
      vertex 20 0 25
      vertex 0 0 25
    endloop
  endfacet
  facet normal 0 -1 -0
    outer loop
      vertex 20 0 25
      vertex 0 0 0
      vertex 20 0 0
    endloop
  endfacet
  facet normal -0.978148 -0.207912 0
    outer loop
      vertex 17 6 0
      vertex 16.611 7.83031 15
      vertex 16.611 7.83031 0
    endloop
  endfacet
  facet normal -0.978148 -0.207912 0
    outer loop
      vertex 16.611 7.83031 15
      vertex 17 6 0
      vertex 17 6 15
    endloop
  endfacet
  facet normal 1 -0 0
    outer loop
      vertex 8.09834 5.0644 15
      vertex 8.09834 6.9356 0
      vertex 8.09834 6.9356 15
    endloop
  endfacet
  facet normal 1 0 0
    outer loop
      vertex 8.09834 6.9356 0
      vertex 8.09834 5.0644 15
      vertex 8.09834 5.0644 0
    endloop
  endfacet
  facet normal -0.104529 -0.994522 0
    outer loop
      vertex 12.0296 10.4753 0
      vertex 13.8906 10.2798 15
      vertex 12.0296 10.4753 15
    endloop
  endfacet
  facet normal -0.104529 -0.994522 -0
    outer loop
      vertex 13.8906 10.2798 15
      vertex 12.0296 10.4753 0
      vertex 13.8906 10.2798 0
    endloop
  endfacet
  facet normal -0.809017 -0.587785 0
    outer loop
      vertex 16.611 7.83031 0
      vertex 15.5111 9.34415 15
      vertex 15.5111 9.34415 0
    endloop
  endfacet
  facet normal -0.809017 -0.587785 0
    outer loop
      vertex 15.5111 9.34415 15
      vertex 16.611 7.83031 0
      vertex 16.611 7.83031 15
    endloop
  endfacet
  facet normal -0.104529 0.994522 0
    outer loop
      vertex 13.8906 1.72025 0
      vertex 12.0296 1.52465 15
      vertex 13.8906 1.72025 15
    endloop
  endfacet
  facet normal -0.104529 0.994522 0
    outer loop
      vertex 12.0296 1.52465 15
      vertex 13.8906 1.72025 0
      vertex 12.0296 1.52465 0
    endloop
  endfacet
  facet normal -0.5 0.866025 0
    outer loop
      vertex 15.5111 2.65585 0
      vertex 13.8906 1.72025 15
      vertex 15.5111 2.65585 15
    endloop
  endfacet
  facet normal -0.5 0.866025 0
    outer loop
      vertex 13.8906 1.72025 15
      vertex 15.5111 2.65585 0
      vertex 13.8906 1.72025 0
    endloop
  endfacet
  facet normal -0.5 -0.866025 0
    outer loop
      vertex 13.8906 10.2798 0
      vertex 15.5111 9.34415 15
      vertex 13.8906 10.2798 15
    endloop
  endfacet
  facet normal -0.5 -0.866025 -0
    outer loop
      vertex 15.5111 9.34415 15
      vertex 13.8906 10.2798 0
      vertex 15.5111 9.34415 0
    endloop
  endfacet
  facet normal 0.66913 -0.743145 0
    outer loop
      vertex 8.85942 8.64503 0
      vertex 10.25 9.89711 15
      vertex 8.85942 8.64503 15
    endloop
  endfacet
  facet normal 0.66913 -0.743145 0
    outer loop
      vertex 10.25 9.89711 15
      vertex 8.85942 8.64503 0
      vertex 10.25 9.89711 0
    endloop
  endfacet
  facet normal 0.913545 -0.406737 0
    outer loop
      vertex 8.09834 6.9356 15
      vertex 8.85942 8.64503 0
      vertex 8.85942 8.64503 15
    endloop
  endfacet
  facet normal 0.913545 -0.406737 0
    outer loop
      vertex 8.85942 8.64503 0
      vertex 8.09834 6.9356 15
      vertex 8.09834 6.9356 0
    endloop
  endfacet
  facet normal 0 0 -1
    outer loop
      vertex 14 6 15
      vertex 17 6 15
      vertex 16.611 4.16968 15
    endloop
  endfacet
  facet normal 0 0 -1
    outer loop
      vertex 14 6 15
      vertex 16.611 4.16968 15
      vertex 15.5111 2.65585 15
    endloop
  endfacet
  facet normal 0 0 -1
    outer loop
      vertex 17 6 15
      vertex 14 6 15
      vertex 16.611 7.83031 15
    endloop
  endfacet
  facet normal -0 0 -1
    outer loop
      vertex 16.611 7.83031 15
      vertex 14 6 15
      vertex 15.5111 9.34415 15
    endloop
  endfacet
  facet normal 0 0 -1
    outer loop
      vertex 12.9635 4.57341 15
      vertex 15.5111 2.65585 15
      vertex 13.8906 1.72025 15
    endloop
  endfacet
  facet normal 0 0 -1
    outer loop
      vertex 15.5111 2.65585 15
      vertex 12.9635 4.57341 15
      vertex 14 6 15
    endloop
  endfacet
  facet normal 0 0 -1
    outer loop
      vertex 12.0296 1.52465 15
      vertex 12.9635 4.57341 15
      vertex 13.8906 1.72025 15
    endloop
  endfacet
  facet normal 0 0 -1
    outer loop
      vertex 12.0296 1.52465 15
      vertex 11.2865 5.11832 15
      vertex 12.9635 4.57341 15
    endloop
  endfacet
  facet normal 0 0 -1
    outer loop
      vertex 8.09834 6.9356 15
      vertex 11.2865 6.88168 15
      vertex 11.2865 5.11832 15
    endloop
  endfacet
  facet normal 0 0 -1
    outer loop
      vertex 10.25 2.10289 15
      vertex 11.2865 5.11832 15
      vertex 12.0296 1.52465 15
    endloop
  endfacet
  facet normal 0 0 -1
    outer loop
      vertex 8.85942 3.35497 15
      vertex 11.2865 5.11832 15
      vertex 10.25 2.10289 15
    endloop
  endfacet
  facet normal 0 0 -1
    outer loop
      vertex 8.09834 5.0644 15
      vertex 11.2865 5.11832 15
      vertex 8.85942 3.35497 15
    endloop
  endfacet
  facet normal 0 0 -1
    outer loop
      vertex 11.2865 6.88168 15
      vertex 8.85942 8.64503 15
      vertex 10.25 9.89711 15
    endloop
  endfacet
  facet normal 0 0 -1
    outer loop
      vertex 8.09834 6.9356 15
      vertex 11.2865 5.11832 15
      vertex 8.09834 5.0644 15
    endloop
  endfacet
  facet normal 0 0 -1
    outer loop
      vertex 11.2865 6.88168 15
      vertex 8.09834 6.9356 15
      vertex 8.85942 8.64503 15
    endloop
  endfacet
  facet normal 0 0 -1
    outer loop
      vertex 12.9635 7.42658 15
      vertex 15.5111 9.34415 15
      vertex 14 6 15
    endloop
  endfacet
  facet normal -0 0 -1
    outer loop
      vertex 15.5111 9.34415 15
      vertex 12.9635 7.42658 15
      vertex 13.8906 10.2798 15
    endloop
  endfacet
  facet normal 0 0 -1
    outer loop
      vertex 12.9635 7.42658 15
      vertex 12.0296 10.4753 15
      vertex 13.8906 10.2798 15
    endloop
  endfacet
  facet normal 0 0 -1
    outer loop
      vertex 11.2865 6.88168 15
      vertex 12.0296 10.4753 15
      vertex 12.9635 7.42658 15
    endloop
  endfacet
  facet normal 0 0 -1
    outer loop
      vertex 12.0296 10.4753 15
      vertex 11.2865 6.88168 15
      vertex 10.25 9.89711 15
    endloop
  endfacet
  facet normal 0.309017 -0.951056 0
    outer loop
      vertex 10.25 9.89711 0
      vertex 12.0296 10.4753 15
      vertex 10.25 9.89711 15
    endloop
  endfacet
  facet normal 0.309017 -0.951056 0
    outer loop
      vertex 12.0296 10.4753 15
      vertex 10.25 9.89711 0
      vertex 12.0296 10.4753 0
    endloop
  endfacet
  facet normal -0.978148 0.207912 0
    outer loop
      vertex 16.611 4.16968 0
      vertex 17 6 15
      vertex 17 6 0
    endloop
  endfacet
  facet normal -0.978148 0.207912 0
    outer loop
      vertex 17 6 15
      vertex 16.611 4.16968 0
      vertex 16.611 4.16968 15
    endloop
  endfacet
  facet normal 0.309017 0.951056 -0
    outer loop
      vertex 12.0296 1.52465 0
      vertex 10.25 2.10289 15
      vertex 12.0296 1.52465 15
    endloop
  endfacet
  facet normal 0.309017 0.951056 0
    outer loop
      vertex 10.25 2.10289 15
      vertex 12.0296 1.52465 0
      vertex 10.25 2.10289 0
    endloop
  endfacet
  facet normal -0.809017 0.587785 0
    outer loop
      vertex 15.5111 2.65585 0
      vertex 16.611 4.16968 15
      vertex 16.611 4.16968 0
    endloop
  endfacet
  facet normal -0.809017 0.587785 0
    outer loop
      vertex 16.611 4.16968 15
      vertex 15.5111 2.65585 0
      vertex 15.5111 2.65585 15
    endloop
  endfacet
  facet normal 0.669131 0.743145 -0
    outer loop
      vertex 10.25 2.10289 0
      vertex 8.85942 3.35497 15
      vertex 10.25 2.10289 15
    endloop
  endfacet
  facet normal 0.669131 0.743145 0
    outer loop
      vertex 8.85942 3.35497 15
      vertex 10.25 2.10289 0
      vertex 8.85942 3.35497 0
    endloop
  endfacet
  facet normal 0.913545 0.406737 0
    outer loop
      vertex 8.85942 3.35497 15
      vertex 8.09834 5.0644 0
      vertex 8.09834 5.0644 15
    endloop
  endfacet
  facet normal 0.913545 0.406737 0
    outer loop
      vertex 8.09834 5.0644 0
      vertex 8.85942 3.35497 15
      vertex 8.85942 3.35497 0
    endloop
  endfacet
  facet normal -0.809017 -0.587786 0
    outer loop
      vertex 14 6 15
      vertex 12.9635 7.42658 17
      vertex 12.9635 7.42658 15
    endloop
  endfacet
  facet normal -0.809017 -0.587786 0
    outer loop
      vertex 12.9635 7.42658 17
      vertex 14 6 15
      vertex 14 6 17
    endloop
  endfacet
  facet normal 1 -0 0
    outer loop
      vertex 11.2865 5.11832 17
      vertex 11.2865 6.88168 15
      vertex 11.2865 6.88168 17
    endloop
  endfacet
  facet normal 1 0 0
    outer loop
      vertex 11.2865 6.88168 15
      vertex 11.2865 5.11832 17
      vertex 11.2865 5.11832 15
    endloop
  endfacet
  facet normal 0.309017 -0.951057 0
    outer loop
      vertex 11.2865 6.88168 15
      vertex 12.9635 7.42658 17
      vertex 11.2865 6.88168 17
    endloop
  endfacet
  facet normal 0.309017 -0.951057 0
    outer loop
      vertex 12.9635 7.42658 17
      vertex 11.2865 6.88168 15
      vertex 12.9635 7.42658 15
    endloop
  endfacet
  facet normal 0.309017 0.951057 -0
    outer loop
      vertex 12.9635 4.57341 15
      vertex 11.2865 5.11832 17
      vertex 12.9635 4.57341 17
    endloop
  endfacet
  facet normal 0.309017 0.951057 0
    outer loop
      vertex 11.2865 5.11832 17
      vertex 12.9635 4.57341 15
      vertex 11.2865 5.11832 15
    endloop
  endfacet
  facet normal -0.809017 0.587785 0
    outer loop
      vertex 12.9635 4.57341 15
      vertex 14 6 17
      vertex 14 6 15
    endloop
  endfacet
  facet normal -0.809017 0.587785 0
    outer loop
      vertex 14 6 17
      vertex 12.9635 4.57341 15
      vertex 12.9635 4.57341 17
    endloop
  endfacet
  facet normal -0.986361 -0.164594 0
    outer loop
      vertex 18.5 6 17
      vertex 18.1749 7.9482 25
      vertex 18.1749 7.9482 17
    endloop
  endfacet
  facet normal -0.986361 -0.164594 0
    outer loop
      vertex 18.1749 7.9482 25
      vertex 18.5 6 17
      vertex 18.5 6 25
    endloop
  endfacet
  facet normal 1 -0 0
    outer loop
      vertex 6.58183 5.01243 25
      vertex 6.58183 6.98757 17
      vertex 6.58183 6.98757 25
    endloop
  endfacet
  facet normal 1 0 0
    outer loop
      vertex 6.58183 6.98757 17
      vertex 6.58183 5.01243 25
      vertex 6.58183 5.01243 17
    endloop
  endfacet
  facet normal -0.0825791 -0.996585 0
    outer loop
      vertex 12.0045 11.9795 17
      vertex 13.9729 11.8164 25
      vertex 12.0045 11.9795 25
    endloop
  endfacet
  facet normal -0.0825791 -0.996585 -0
    outer loop
      vertex 13.9729 11.8164 25
      vertex 12.0045 11.9795 17
      vertex 13.9729 11.8164 17
    endloop
  endfacet
  facet normal -0.0825791 0.996585 0
    outer loop
      vertex 13.9729 0.183598 17
      vertex 12.0045 0.0204926 25
      vertex 13.9729 0.183598 25
    endloop
  endfacet
  facet normal -0.0825791 0.996585 0
    outer loop
      vertex 12.0045 0.0204926 25
      vertex 13.9729 0.183598 17
      vertex 12.0045 0.0204926 17
    endloop
  endfacet
  facet normal 0.546948 0.837166 -0
    outer loop
      vertex 10.0898 0.50536 17
      vertex 8.43631 1.58566 25
      vertex 10.0898 0.50536 25
    endloop
  endfacet
  facet normal 0.546948 0.837166 0
    outer loop
      vertex 8.43631 1.58566 25
      vertex 10.0898 0.50536 17
      vertex 8.43631 1.58566 17
    endloop
  endfacet
  facet normal 0 0 1
    outer loop
      vertex 14 6 17
      vertex 18.5 6 17
      vertex 18.1749 7.9482 17
    endloop
  endfacet
  facet normal 0 0 1
    outer loop
      vertex 14 6 17
      vertex 18.1749 7.9482 17
      vertex 17.2348 9.68528 17
    endloop
  endfacet
  facet normal 0 0 1
    outer loop
      vertex 18.5 6 17
      vertex 14 6 17
      vertex 18.1749 4.0518 17
    endloop
  endfacet
  facet normal 0 0 1
    outer loop
      vertex 12.9635 7.42658 17
      vertex 17.2348 9.68528 17
      vertex 15.7817 11.023 17
    endloop
  endfacet
  facet normal 0 0 1
    outer loop
      vertex 18.1749 4.0518 17
      vertex 14 6 17
      vertex 17.2348 2.31472 17
    endloop
  endfacet
  facet normal -0 0 1
    outer loop
      vertex 12.9635 4.57341 17
      vertex 17.2348 2.31472 17
      vertex 14 6 17
    endloop
  endfacet
  facet normal 0 0 1
    outer loop
      vertex 12.9635 7.42658 17
      vertex 15.7817 11.023 17
      vertex 13.9729 11.8164 17
    endloop
  endfacet
  facet normal 0 0 1
    outer loop
      vertex 17.2348 9.68528 17
      vertex 12.9635 7.42658 17
      vertex 14 6 17
    endloop
  endfacet
  facet normal 0 0 1
    outer loop
      vertex 12.0045 11.9795 17
      vertex 12.9635 7.42658 17
      vertex 13.9729 11.8164 17
    endloop
  endfacet
  facet normal -0 0 1
    outer loop
      vertex 10.0898 11.4946 17
      vertex 12.9635 7.42658 17
      vertex 12.0045 11.9795 17
    endloop
  endfacet
  facet normal -0 0 1
    outer loop
      vertex 8.43631 10.4143 17
      vertex 11.2865 6.88168 17
      vertex 10.0898 11.4946 17
    endloop
  endfacet
  facet normal 0 0 1
    outer loop
      vertex 12.9635 7.42658 17
      vertex 10.0898 11.4946 17
      vertex 11.2865 6.88168 17
    endloop
  endfacet
  facet normal 0 0 1
    outer loop
      vertex 17.2348 2.31472 17
      vertex 12.9635 4.57341 17
      vertex 15.7817 0.977 17
    endloop
  endfacet
  facet normal 0 0 1
    outer loop
      vertex 15.7817 0.977 17
      vertex 12.9635 4.57341 17
      vertex 13.9729 0.183598 17
    endloop
  endfacet
  facet normal 0 0 1
    outer loop
      vertex 12.9635 4.57341 17
      vertex 12.0045 0.0204926 17
      vertex 13.9729 0.183598 17
    endloop
  endfacet
  facet normal 0 0 1
    outer loop
      vertex 10.0898 0.50536 17
      vertex 12.9635 4.57341 17
      vertex 11.2865 5.11832 17
    endloop
  endfacet
  facet normal -0 0 1
    outer loop
      vertex 7.22316 8.85568 17
      vertex 11.2865 6.88168 17
      vertex 8.43631 10.4143 17
    endloop
  endfacet
  facet normal 0 0 1
    outer loop
      vertex 12.9635 4.57341 17
      vertex 10.0898 0.50536 17
      vertex 12.0045 0.0204926 17
    endloop
  endfacet
  facet normal -0 0 1
    outer loop
      vertex 6.58183 6.98757 17
      vertex 11.2865 6.88168 17
      vertex 7.22316 8.85568 17
    endloop
  endfacet
  facet normal 0 0 1
    outer loop
      vertex 11.2865 5.11832 17
      vertex 8.43631 1.58566 17
      vertex 10.0898 0.50536 17
    endloop
  endfacet
  facet normal 0 0 1
    outer loop
      vertex 11.2865 6.88168 17
      vertex 6.58183 6.98757 17
      vertex 11.2865 5.11832 17
    endloop
  endfacet
  facet normal 0 0 1
    outer loop
      vertex 11.2865 5.11832 17
      vertex 7.22316 3.14431 17
      vertex 8.43631 1.58566 17
    endloop
  endfacet
  facet normal 0 0 1
    outer loop
      vertex 6.58183 5.01243 17
      vertex 11.2865 5.11832 17
      vertex 6.58183 6.98757 17
    endloop
  endfacet
  facet normal 0 0 1
    outer loop
      vertex 11.2865 5.11832 17
      vertex 6.58183 5.01243 17
      vertex 7.22316 3.14431 17
    endloop
  endfacet
  facet normal -0.677282 -0.735724 0
    outer loop
      vertex 15.7817 11.023 17
      vertex 17.2348 9.68528 25
      vertex 15.7817 11.023 25
    endloop
  endfacet
  facet normal -0.677282 -0.735724 -0
    outer loop
      vertex 17.2348 9.68528 25
      vertex 15.7817 11.023 17
      vertex 17.2348 9.68528 17
    endloop
  endfacet
  facet normal -0.879474 -0.475948 0
    outer loop
      vertex 18.1749 7.9482 17
      vertex 17.2348 9.68528 25
      vertex 17.2348 9.68528 17
    endloop
  endfacet
  facet normal -0.879474 -0.475948 0
    outer loop
      vertex 17.2348 9.68528 25
      vertex 18.1749 7.9482 17
      vertex 18.1749 7.9482 25
    endloop
  endfacet
  facet normal -0.401695 -0.915773 0
    outer loop
      vertex 13.9729 11.8164 17
      vertex 15.7817 11.023 25
      vertex 13.9729 11.8164 25
    endloop
  endfacet
  facet normal -0.401695 -0.915773 -0
    outer loop
      vertex 15.7817 11.023 25
      vertex 13.9729 11.8164 17
      vertex 15.7817 11.023 17
    endloop
  endfacet
  facet normal 0.78914 -0.614213 0
    outer loop
      vertex 7.22316 8.85568 25
      vertex 8.43631 10.4143 17
      vertex 8.43631 10.4143 25
    endloop
  endfacet
  facet normal 0.78914 -0.614213 0
    outer loop
      vertex 8.43631 10.4143 17
      vertex 7.22316 8.85568 25
      vertex 7.22316 8.85568 17
    endloop
  endfacet
  facet normal 0.945817 -0.324699 0
    outer loop
      vertex 6.58183 6.98757 25
      vertex 7.22316 8.85568 17
      vertex 7.22316 8.85568 25
    endloop
  endfacet
  facet normal 0.945817 -0.324699 0
    outer loop
      vertex 7.22316 8.85568 17
      vertex 6.58183 6.98757 25
      vertex 6.58183 6.98757 17
    endloop
  endfacet
  facet normal 0.245486 -0.9694 0
    outer loop
      vertex 10.0898 11.4946 17
      vertex 12.0045 11.9795 25
      vertex 10.0898 11.4946 25
    endloop
  endfacet
  facet normal 0.245486 -0.9694 0
    outer loop
      vertex 12.0045 11.9795 25
      vertex 10.0898 11.4946 17
      vertex 12.0045 11.9795 17
    endloop
  endfacet
  facet normal 0.245486 0.9694 -0
    outer loop
      vertex 12.0045 0.0204926 17
      vertex 10.0898 0.50536 25
      vertex 12.0045 0.0204926 25
    endloop
  endfacet
  facet normal 0.245486 0.9694 0
    outer loop
      vertex 10.0898 0.50536 25
      vertex 12.0045 0.0204926 17
      vertex 10.0898 0.50536 17
    endloop
  endfacet
  facet normal 0.945817 0.324699 0
    outer loop
      vertex 7.22316 3.14431 25
      vertex 6.58183 5.01243 17
      vertex 6.58183 5.01243 25
    endloop
  endfacet
  facet normal 0.945817 0.324699 0
    outer loop
      vertex 6.58183 5.01243 17
      vertex 7.22316 3.14431 25
      vertex 7.22316 3.14431 17
    endloop
  endfacet
  facet normal 0.546948 -0.837166 0
    outer loop
      vertex 8.43631 10.4143 17
      vertex 10.0898 11.4946 25
      vertex 8.43631 10.4143 25
    endloop
  endfacet
  facet normal 0.546948 -0.837166 0
    outer loop
      vertex 10.0898 11.4946 25
      vertex 8.43631 10.4143 17
      vertex 10.0898 11.4946 17
    endloop
  endfacet
  facet normal -0.401695 0.915773 0
    outer loop
      vertex 15.7817 0.977 17
      vertex 13.9729 0.183598 25
      vertex 15.7817 0.977 25
    endloop
  endfacet
  facet normal -0.401695 0.915773 0
    outer loop
      vertex 13.9729 0.183598 25
      vertex 15.7817 0.977 17
      vertex 13.9729 0.183598 17
    endloop
  endfacet
  facet normal -0.986361 0.164594 0
    outer loop
      vertex 18.1749 4.0518 17
      vertex 18.5 6 25
      vertex 18.5 6 17
    endloop
  endfacet
  facet normal -0.986361 0.164594 0
    outer loop
      vertex 18.5 6 25
      vertex 18.1749 4.0518 17
      vertex 18.1749 4.0518 25
    endloop
  endfacet
  facet normal 0.78914 0.614213 0
    outer loop
      vertex 8.43631 1.58566 25
      vertex 7.22316 3.14431 17
      vertex 7.22316 3.14431 25
    endloop
  endfacet
  facet normal 0.78914 0.614213 0
    outer loop
      vertex 7.22316 3.14431 17
      vertex 8.43631 1.58566 25
      vertex 8.43631 1.58566 17
    endloop
  endfacet
  facet normal -0.677282 0.735724 0
    outer loop
      vertex 17.2348 2.31472 17
      vertex 15.7817 0.977 25
      vertex 17.2348 2.31472 25
    endloop
  endfacet
  facet normal -0.677282 0.735724 0
    outer loop
      vertex 15.7817 0.977 25
      vertex 17.2348 2.31472 17
      vertex 15.7817 0.977 17
    endloop
  endfacet
  facet normal -0.879474 0.475948 0
    outer loop
      vertex 17.2348 2.31472 17
      vertex 18.1749 4.0518 25
      vertex 18.1749 4.0518 17
    endloop
  endfacet
  facet normal -0.879474 0.475948 0
    outer loop
      vertex 18.1749 4.0518 25
      vertex 17.2348 2.31472 17
      vertex 17.2348 2.31472 25
    endloop
  endfacet
  facet normal -0.978148 -0.207912 0
    outer loop
      vertex 17 54 0
      vertex 16.611 55.8303 15
      vertex 16.611 55.8303 0
    endloop
  endfacet
  facet normal -0.978148 -0.207912 0
    outer loop
      vertex 16.611 55.8303 15
      vertex 17 54 0
      vertex 17 54 15
    endloop
  endfacet
  facet normal 1 -0 0
    outer loop
      vertex 8.09834 53.0644 15
      vertex 8.09834 54.9356 0
      vertex 8.09834 54.9356 15
    endloop
  endfacet
  facet normal 1 0 0
    outer loop
      vertex 8.09834 54.9356 0
      vertex 8.09834 53.0644 15
      vertex 8.09834 53.0644 0
    endloop
  endfacet
  facet normal -0.104529 -0.994522 0
    outer loop
      vertex 12.0296 58.4753 0
      vertex 13.8906 58.2798 15
      vertex 12.0296 58.4753 15
    endloop
  endfacet
  facet normal -0.104529 -0.994522 -0
    outer loop
      vertex 13.8906 58.2798 15
      vertex 12.0296 58.4753 0
      vertex 13.8906 58.2798 0
    endloop
  endfacet
  facet normal -0.809017 -0.587785 0
    outer loop
      vertex 16.611 55.8303 0
      vertex 15.5111 57.3442 15
      vertex 15.5111 57.3442 0
    endloop
  endfacet
  facet normal -0.809017 -0.587785 0
    outer loop
      vertex 15.5111 57.3442 15
      vertex 16.611 55.8303 0
      vertex 16.611 55.8303 15
    endloop
  endfacet
  facet normal -0.104529 0.994522 0
    outer loop
      vertex 13.8906 49.7202 0
      vertex 12.0296 49.5247 15
      vertex 13.8906 49.7202 15
    endloop
  endfacet
  facet normal -0.104529 0.994522 0
    outer loop
      vertex 12.0296 49.5247 15
      vertex 13.8906 49.7202 0
      vertex 12.0296 49.5247 0
    endloop
  endfacet
  facet normal -0.499999 0.866026 0
    outer loop
      vertex 15.5111 50.6558 0
      vertex 13.8906 49.7202 15
      vertex 15.5111 50.6558 15
    endloop
  endfacet
  facet normal -0.499999 0.866026 0
    outer loop
      vertex 13.8906 49.7202 15
      vertex 15.5111 50.6558 0
      vertex 13.8906 49.7202 0
    endloop
  endfacet
  facet normal -0.500001 -0.866025 0
    outer loop
      vertex 13.8906 58.2798 0
      vertex 15.5111 57.3442 15
      vertex 13.8906 58.2798 15
    endloop
  endfacet
  facet normal -0.500001 -0.866025 -0
    outer loop
      vertex 15.5111 57.3442 15
      vertex 13.8906 58.2798 0
      vertex 15.5111 57.3442 0
    endloop
  endfacet
  facet normal 0.66913 -0.743145 0
    outer loop
      vertex 8.85942 56.645 0
      vertex 10.25 57.8971 15
      vertex 8.85942 56.645 15
    endloop
  endfacet
  facet normal 0.66913 -0.743145 0
    outer loop
      vertex 10.25 57.8971 15
      vertex 8.85942 56.645 0
      vertex 10.25 57.8971 0
    endloop
  endfacet
  facet normal 0.913546 -0.406736 0
    outer loop
      vertex 8.09834 54.9356 15
      vertex 8.85942 56.645 0
      vertex 8.85942 56.645 15
    endloop
  endfacet
  facet normal 0.913546 -0.406736 0
    outer loop
      vertex 8.85942 56.645 0
      vertex 8.09834 54.9356 15
      vertex 8.09834 54.9356 0
    endloop
  endfacet
  facet normal 0 0 -1
    outer loop
      vertex 14 54 15
      vertex 17 54 15
      vertex 16.611 52.1697 15
    endloop
  endfacet
  facet normal 0 0 -1
    outer loop
      vertex 14 54 15
      vertex 16.611 52.1697 15
      vertex 15.5111 50.6558 15
    endloop
  endfacet
  facet normal 0 0 -1
    outer loop
      vertex 17 54 15
      vertex 14 54 15
      vertex 16.611 55.8303 15
    endloop
  endfacet
  facet normal -0 0 -1
    outer loop
      vertex 16.611 55.8303 15
      vertex 14 54 15
      vertex 15.5111 57.3442 15
    endloop
  endfacet
  facet normal 0 0 -1
    outer loop
      vertex 12.9635 52.5734 15
      vertex 15.5111 50.6558 15
      vertex 13.8906 49.7202 15
    endloop
  endfacet
  facet normal 0 0 -1
    outer loop
      vertex 15.5111 50.6558 15
      vertex 12.9635 52.5734 15
      vertex 14 54 15
    endloop
  endfacet
  facet normal 0 0 -1
    outer loop
      vertex 12.0296 49.5247 15
      vertex 12.9635 52.5734 15
      vertex 13.8906 49.7202 15
    endloop
  endfacet
  facet normal 0 0 -1
    outer loop
      vertex 12.0296 49.5247 15
      vertex 11.2865 53.1183 15
      vertex 12.9635 52.5734 15
    endloop
  endfacet
  facet normal 0 0 -1
    outer loop
      vertex 8.09834 54.9356 15
      vertex 11.2865 54.8817 15
      vertex 11.2865 53.1183 15
    endloop
  endfacet
  facet normal 0 0 -1
    outer loop
      vertex 10.25 50.1029 15
      vertex 11.2865 53.1183 15
      vertex 12.0296 49.5247 15
    endloop
  endfacet
  facet normal 0 0 -1
    outer loop
      vertex 8.85942 51.355 15
      vertex 11.2865 53.1183 15
      vertex 10.25 50.1029 15
    endloop
  endfacet
  facet normal 0 0 -1
    outer loop
      vertex 8.09834 53.0644 15
      vertex 11.2865 53.1183 15
      vertex 8.85942 51.355 15
    endloop
  endfacet
  facet normal 0 0 -1
    outer loop
      vertex 11.2865 54.8817 15
      vertex 8.85942 56.645 15
      vertex 10.25 57.8971 15
    endloop
  endfacet
  facet normal 0 0 -1
    outer loop
      vertex 8.09834 54.9356 15
      vertex 11.2865 53.1183 15
      vertex 8.09834 53.0644 15
    endloop
  endfacet
  facet normal 0 0 -1
    outer loop
      vertex 11.2865 54.8817 15
      vertex 8.09834 54.9356 15
      vertex 8.85942 56.645 15
    endloop
  endfacet
  facet normal 0 0 -1
    outer loop
      vertex 12.9635 55.4266 15
      vertex 15.5111 57.3442 15
      vertex 14 54 15
    endloop
  endfacet
  facet normal -0 0 -1
    outer loop
      vertex 15.5111 57.3442 15
      vertex 12.9635 55.4266 15
      vertex 13.8906 58.2798 15
    endloop
  endfacet
  facet normal 0 0 -1
    outer loop
      vertex 12.9635 55.4266 15
      vertex 12.0296 58.4753 15
      vertex 13.8906 58.2798 15
    endloop
  endfacet
  facet normal 0 0 -1
    outer loop
      vertex 11.2865 54.8817 15
      vertex 12.0296 58.4753 15
      vertex 12.9635 55.4266 15
    endloop
  endfacet
  facet normal 0 0 -1
    outer loop
      vertex 12.0296 58.4753 15
      vertex 11.2865 54.8817 15
      vertex 10.25 57.8971 15
    endloop
  endfacet
  facet normal 0.309018 -0.951056 0
    outer loop
      vertex 10.25 57.8971 0
      vertex 12.0296 58.4753 15
      vertex 10.25 57.8971 15
    endloop
  endfacet
  facet normal 0.309018 -0.951056 0
    outer loop
      vertex 12.0296 58.4753 15
      vertex 10.25 57.8971 0
      vertex 12.0296 58.4753 0
    endloop
  endfacet
  facet normal 0.309018 0.951056 -0
    outer loop
      vertex 12.0296 49.5247 0
      vertex 10.25 50.1029 15
      vertex 12.0296 49.5247 15
    endloop
  endfacet
  facet normal 0.309018 0.951056 0
    outer loop
      vertex 10.25 50.1029 15
      vertex 12.0296 49.5247 0
      vertex 10.25 50.1029 0
    endloop
  endfacet
  facet normal 0.913545 0.406737 0
    outer loop
      vertex 8.85942 51.355 15
      vertex 8.09834 53.0644 0
      vertex 8.09834 53.0644 15
    endloop
  endfacet
  facet normal 0.913545 0.406737 0
    outer loop
      vertex 8.09834 53.0644 0
      vertex 8.85942 51.355 15
      vertex 8.85942 51.355 0
    endloop
  endfacet
  facet normal -0.809018 0.587785 0
    outer loop
      vertex 15.5111 50.6558 0
      vertex 16.611 52.1697 15
      vertex 16.611 52.1697 0
    endloop
  endfacet
  facet normal -0.809018 0.587785 0
    outer loop
      vertex 16.611 52.1697 15
      vertex 15.5111 50.6558 0
      vertex 15.5111 50.6558 15
    endloop
  endfacet
  facet normal -0.978148 0.207912 0
    outer loop
      vertex 16.611 52.1697 0
      vertex 17 54 15
      vertex 17 54 0
    endloop
  endfacet
  facet normal -0.978148 0.207912 0
    outer loop
      vertex 17 54 15
      vertex 16.611 52.1697 0
      vertex 16.611 52.1697 15
    endloop
  endfacet
  facet normal 0.66913 0.743145 -0
    outer loop
      vertex 10.25 50.1029 0
      vertex 8.85942 51.355 15
      vertex 10.25 50.1029 15
    endloop
  endfacet
  facet normal 0.66913 0.743145 0
    outer loop
      vertex 8.85942 51.355 15
      vertex 10.25 50.1029 0
      vertex 8.85942 51.355 0
    endloop
  endfacet
  facet normal -0.809016 -0.587786 0
    outer loop
      vertex 14 54 15
      vertex 12.9635 55.4266 17
      vertex 12.9635 55.4266 15
    endloop
  endfacet
  facet normal -0.809016 -0.587786 0
    outer loop
      vertex 12.9635 55.4266 17
      vertex 14 54 15
      vertex 14 54 17
    endloop
  endfacet
  facet normal 1 -0 0
    outer loop
      vertex 11.2865 53.1183 17
      vertex 11.2865 54.8817 15
      vertex 11.2865 54.8817 17
    endloop
  endfacet
  facet normal 1 0 0
    outer loop
      vertex 11.2865 54.8817 15
      vertex 11.2865 53.1183 17
      vertex 11.2865 53.1183 15
    endloop
  endfacet
  facet normal 0.309017 -0.951057 0
    outer loop
      vertex 11.2865 54.8817 15
      vertex 12.9635 55.4266 17
      vertex 11.2865 54.8817 17
    endloop
  endfacet
  facet normal 0.309017 -0.951057 0
    outer loop
      vertex 12.9635 55.4266 17
      vertex 11.2865 54.8817 15
      vertex 12.9635 55.4266 15
    endloop
  endfacet
  facet normal 0.309017 0.951057 -0
    outer loop
      vertex 12.9635 52.5734 15
      vertex 11.2865 53.1183 17
      vertex 12.9635 52.5734 17
    endloop
  endfacet
  facet normal 0.309017 0.951057 0
    outer loop
      vertex 11.2865 53.1183 17
      vertex 12.9635 52.5734 15
      vertex 11.2865 53.1183 15
    endloop
  endfacet
  facet normal -0.809017 0.587785 0
    outer loop
      vertex 12.9635 52.5734 15
      vertex 14 54 17
      vertex 14 54 15
    endloop
  endfacet
  facet normal -0.809017 0.587785 0
    outer loop
      vertex 14 54 17
      vertex 12.9635 52.5734 15
      vertex 12.9635 52.5734 17
    endloop
  endfacet
  facet normal -0.986361 -0.164594 0
    outer loop
      vertex 18.5 54 17
      vertex 18.1749 55.9482 25
      vertex 18.1749 55.9482 17
    endloop
  endfacet
  facet normal -0.986361 -0.164594 0
    outer loop
      vertex 18.1749 55.9482 25
      vertex 18.5 54 17
      vertex 18.5 54 25
    endloop
  endfacet
  facet normal 1 -0 0
    outer loop
      vertex 6.58183 53.0124 25
      vertex 6.58183 54.9876 17
      vertex 6.58183 54.9876 25
    endloop
  endfacet
  facet normal 1 0 0
    outer loop
      vertex 6.58183 54.9876 17
      vertex 6.58183 53.0124 25
      vertex 6.58183 53.0124 17
    endloop
  endfacet
  facet normal -0.0825791 -0.996585 0
    outer loop
      vertex 12.0045 59.9795 17
      vertex 13.9729 59.8164 25
      vertex 12.0045 59.9795 25
    endloop
  endfacet
  facet normal -0.0825791 -0.996585 -0
    outer loop
      vertex 13.9729 59.8164 25
      vertex 12.0045 59.9795 17
      vertex 13.9729 59.8164 17
    endloop
  endfacet
  facet normal -0.0825791 0.996585 0
    outer loop
      vertex 13.9729 48.1836 17
      vertex 12.0045 48.0205 25
      vertex 13.9729 48.1836 25
    endloop
  endfacet
  facet normal -0.0825791 0.996585 0
    outer loop
      vertex 12.0045 48.0205 25
      vertex 13.9729 48.1836 17
      vertex 12.0045 48.0205 17
    endloop
  endfacet
  facet normal 0.546948 0.837167 -0
    outer loop
      vertex 10.0898 48.5054 17
      vertex 8.43631 49.5857 25
      vertex 10.0898 48.5054 25
    endloop
  endfacet
  facet normal 0.546948 0.837167 0
    outer loop
      vertex 8.43631 49.5857 25
      vertex 10.0898 48.5054 17
      vertex 8.43631 49.5857 17
    endloop
  endfacet
  facet normal 0 0 1
    outer loop
      vertex 14 54 17
      vertex 18.5 54 17
      vertex 18.1749 55.9482 17
    endloop
  endfacet
  facet normal 0 0 1
    outer loop
      vertex 14 54 17
      vertex 18.1749 55.9482 17
      vertex 17.2348 57.6853 17
    endloop
  endfacet
  facet normal 0 0 1
    outer loop
      vertex 18.5 54 17
      vertex 14 54 17
      vertex 18.1749 52.0518 17
    endloop
  endfacet
  facet normal 0 0 1
    outer loop
      vertex 12.9635 55.4266 17
      vertex 17.2348 57.6853 17
      vertex 15.7817 59.023 17
    endloop
  endfacet
  facet normal 0 0 1
    outer loop
      vertex 18.1749 52.0518 17
      vertex 14 54 17
      vertex 17.2348 50.3147 17
    endloop
  endfacet
  facet normal -0 0 1
    outer loop
      vertex 12.9635 52.5734 17
      vertex 17.2348 50.3147 17
      vertex 14 54 17
    endloop
  endfacet
  facet normal 0 0 1
    outer loop
      vertex 12.9635 55.4266 17
      vertex 15.7817 59.023 17
      vertex 13.9729 59.8164 17
    endloop
  endfacet
  facet normal 0 0 1
    outer loop
      vertex 17.2348 57.6853 17
      vertex 12.9635 55.4266 17
      vertex 14 54 17
    endloop
  endfacet
  facet normal 0 0 1
    outer loop
      vertex 12.0045 59.9795 17
      vertex 12.9635 55.4266 17
      vertex 13.9729 59.8164 17
    endloop
  endfacet
  facet normal -0 0 1
    outer loop
      vertex 10.0898 59.4946 17
      vertex 12.9635 55.4266 17
      vertex 12.0045 59.9795 17
    endloop
  endfacet
  facet normal -0 0 1
    outer loop
      vertex 8.43631 58.4143 17
      vertex 11.2865 54.8817 17
      vertex 10.0898 59.4946 17
    endloop
  endfacet
  facet normal 0 0 1
    outer loop
      vertex 12.9635 55.4266 17
      vertex 10.0898 59.4946 17
      vertex 11.2865 54.8817 17
    endloop
  endfacet
  facet normal 0 0 1
    outer loop
      vertex 17.2348 50.3147 17
      vertex 12.9635 52.5734 17
      vertex 15.7817 48.977 17
    endloop
  endfacet
  facet normal 0 0 1
    outer loop
      vertex 15.7817 48.977 17
      vertex 12.9635 52.5734 17
      vertex 13.9729 48.1836 17
    endloop
  endfacet
  facet normal 0 0 1
    outer loop
      vertex 12.9635 52.5734 17
      vertex 12.0045 48.0205 17
      vertex 13.9729 48.1836 17
    endloop
  endfacet
  facet normal 0 0 1
    outer loop
      vertex 10.0898 48.5054 17
      vertex 12.9635 52.5734 17
      vertex 11.2865 53.1183 17
    endloop
  endfacet
  facet normal -0 0 1
    outer loop
      vertex 7.22316 56.8557 17
      vertex 11.2865 54.8817 17
      vertex 8.43631 58.4143 17
    endloop
  endfacet
  facet normal 0 0 1
    outer loop
      vertex 12.9635 52.5734 17
      vertex 10.0898 48.5054 17
      vertex 12.0045 48.0205 17
    endloop
  endfacet
  facet normal -0 0 1
    outer loop
      vertex 6.58183 54.9876 17
      vertex 11.2865 54.8817 17
      vertex 7.22316 56.8557 17
    endloop
  endfacet
  facet normal 0 0 1
    outer loop
      vertex 11.2865 53.1183 17
      vertex 8.43631 49.5857 17
      vertex 10.0898 48.5054 17
    endloop
  endfacet
  facet normal 0 0 1
    outer loop
      vertex 11.2865 54.8817 17
      vertex 6.58183 54.9876 17
      vertex 11.2865 53.1183 17
    endloop
  endfacet
  facet normal 0 0 1
    outer loop
      vertex 11.2865 53.1183 17
      vertex 7.22316 51.1443 17
      vertex 8.43631 49.5857 17
    endloop
  endfacet
  facet normal 0 0 1
    outer loop
      vertex 6.58183 53.0124 17
      vertex 11.2865 53.1183 17
      vertex 6.58183 54.9876 17
    endloop
  endfacet
  facet normal 0 0 1
    outer loop
      vertex 11.2865 53.1183 17
      vertex 6.58183 53.0124 17
      vertex 7.22316 51.1443 17
    endloop
  endfacet
  facet normal -0.677282 -0.735724 0
    outer loop
      vertex 15.7817 59.023 17
      vertex 17.2348 57.6853 25
      vertex 15.7817 59.023 25
    endloop
  endfacet
  facet normal -0.677282 -0.735724 -0
    outer loop
      vertex 17.2348 57.6853 25
      vertex 15.7817 59.023 17
      vertex 17.2348 57.6853 17
    endloop
  endfacet
  facet normal -0.879474 -0.475948 0
    outer loop
      vertex 18.1749 55.9482 17
      vertex 17.2348 57.6853 25
      vertex 17.2348 57.6853 17
    endloop
  endfacet
  facet normal -0.879474 -0.475948 0
    outer loop
      vertex 17.2348 57.6853 25
      vertex 18.1749 55.9482 17
      vertex 18.1749 55.9482 25
    endloop
  endfacet
  facet normal -0.401696 -0.915773 0
    outer loop
      vertex 13.9729 59.8164 17
      vertex 15.7817 59.023 25
      vertex 13.9729 59.8164 25
    endloop
  endfacet
  facet normal -0.401696 -0.915773 -0
    outer loop
      vertex 15.7817 59.023 25
      vertex 13.9729 59.8164 17
      vertex 15.7817 59.023 17
    endloop
  endfacet
  facet normal 0.789141 -0.614212 0
    outer loop
      vertex 7.22316 56.8557 25
      vertex 8.43631 58.4143 17
      vertex 8.43631 58.4143 25
    endloop
  endfacet
  facet normal 0.789141 -0.614212 0
    outer loop
      vertex 8.43631 58.4143 17
      vertex 7.22316 56.8557 25
      vertex 7.22316 56.8557 17
    endloop
  endfacet
  facet normal 0.945817 -0.3247 0
    outer loop
      vertex 6.58183 54.9876 25
      vertex 7.22316 56.8557 17
      vertex 7.22316 56.8557 25
    endloop
  endfacet
  facet normal 0.945817 -0.3247 0
    outer loop
      vertex 7.22316 56.8557 17
      vertex 6.58183 54.9876 25
      vertex 6.58183 54.9876 17
    endloop
  endfacet
  facet normal 0.245486 -0.9694 0
    outer loop
      vertex 10.0898 59.4946 17
      vertex 12.0045 59.9795 25
      vertex 10.0898 59.4946 25
    endloop
  endfacet
  facet normal 0.245486 -0.9694 0
    outer loop
      vertex 12.0045 59.9795 25
      vertex 10.0898 59.4946 17
      vertex 12.0045 59.9795 17
    endloop
  endfacet
  facet normal -0.986361 0.164594 0
    outer loop
      vertex 18.1749 52.0518 17
      vertex 18.5 54 25
      vertex 18.5 54 17
    endloop
  endfacet
  facet normal -0.986361 0.164594 0
    outer loop
      vertex 18.5 54 25
      vertex 18.1749 52.0518 17
      vertex 18.1749 52.0518 25
    endloop
  endfacet
  facet normal 0.245486 0.9694 -0
    outer loop
      vertex 12.0045 48.0205 17
      vertex 10.0898 48.5054 25
      vertex 12.0045 48.0205 25
    endloop
  endfacet
  facet normal 0.245486 0.9694 0
    outer loop
      vertex 10.0898 48.5054 25
      vertex 12.0045 48.0205 17
      vertex 10.0898 48.5054 17
    endloop
  endfacet
  facet normal 0.945817 0.324699 0
    outer loop
      vertex 7.22316 51.1443 25
      vertex 6.58183 53.0124 17
      vertex 6.58183 53.0124 25
    endloop
  endfacet
  facet normal 0.945817 0.324699 0
    outer loop
      vertex 6.58183 53.0124 17
      vertex 7.22316 51.1443 25
      vertex 7.22316 51.1443 17
    endloop
  endfacet
  facet normal 0.546948 -0.837167 0
    outer loop
      vertex 8.43631 58.4143 17
      vertex 10.0898 59.4946 25
      vertex 8.43631 58.4143 25
    endloop
  endfacet
  facet normal 0.546948 -0.837167 0
    outer loop
      vertex 10.0898 59.4946 25
      vertex 8.43631 58.4143 17
      vertex 10.0898 59.4946 17
    endloop
  endfacet
  facet normal -0.401696 0.915773 0
    outer loop
      vertex 15.7817 48.977 17
      vertex 13.9729 48.1836 25
      vertex 15.7817 48.977 25
    endloop
  endfacet
  facet normal -0.401696 0.915773 0
    outer loop
      vertex 13.9729 48.1836 25
      vertex 15.7817 48.977 17
      vertex 13.9729 48.1836 17
    endloop
  endfacet
  facet normal 0.78914 0.614213 0
    outer loop
      vertex 8.43631 49.5857 25
      vertex 7.22316 51.1443 17
      vertex 7.22316 51.1443 25
    endloop
  endfacet
  facet normal 0.78914 0.614213 0
    outer loop
      vertex 7.22316 51.1443 17
      vertex 8.43631 49.5857 25
      vertex 8.43631 49.5857 17
    endloop
  endfacet
  facet normal -0.677282 0.735724 0
    outer loop
      vertex 17.2348 50.3147 17
      vertex 15.7817 48.977 25
      vertex 17.2348 50.3147 25
    endloop
  endfacet
  facet normal -0.677282 0.735724 0
    outer loop
      vertex 15.7817 48.977 25
      vertex 17.2348 50.3147 17
      vertex 15.7817 48.977 17
    endloop
  endfacet
  facet normal -0.879474 0.475948 0
    outer loop
      vertex 17.2348 50.3147 17
      vertex 18.1749 52.0518 25
      vertex 18.1749 52.0518 17
    endloop
  endfacet
  facet normal -0.879474 0.475948 0
    outer loop
      vertex 18.1749 52.0518 25
      vertex 17.2348 50.3147 17
      vertex 17.2348 50.3147 25
    endloop
  endfacet
  facet normal -0.703233 -0.10453 0.703233
    outer loop
      vertex 1.97454 34.0543 0
      vertex 18 33.5 15.9431
      vertex 20 34.0543 18.0255
    endloop
  endfacet
  facet normal -0.703233 -0.104528 0.703233
    outer loop
      vertex 18 30 15.4228
      vertex 1.97454 34.0543 0
      vertex 2.57716 30 0
    endloop
  endfacet
  facet normal -0.703233 -0.104528 0.703233
    outer loop
      vertex 1.97454 34.0543 0
      vertex 18 30 15.4228
      vertex 18 33.5 15.9431
    endloop
  endfacet
  facet normal -0.703233 -0.104529 0.703233
    outer loop
      vertex 20 34.0543 18.0255
      vertex 18 33.5 15.9431
      vertex 20 33.5 17.9431
    endloop
  endfacet
  facet normal -0.703233 0.104528 0.703233
    outer loop
      vertex 1.97454 25.9457 0
      vertex 18 30 15.4228
      vertex 2.57716 30 0
    endloop
  endfacet
  facet normal -0.703233 0.104528 0.703233
    outer loop
      vertex 18 30 15.4228
      vertex 1.97454 25.9457 0
      vertex 18 26.5 15.9431
    endloop
  endfacet
  facet normal -0.703233 0.104529 0.703233
    outer loop
      vertex 20 25.9457 18.0255
      vertex 18 26.5 15.9431
      vertex 1.97454 25.9457 0
    endloop
  endfacet
  facet normal -0.703233 0.104528 0.703233
    outer loop
      vertex 18 26.5 15.9431
      vertex 20 25.9457 18.0255
      vertex 20 26.5 17.9431
    endloop
  endfacet
  facet normal -0.525484 -0.669131 0.525481
    outer loop
      vertex 18.4527 44.4913 25
      vertex 20 42.731 24.3057
      vertex 20 43.2762 25
    endloop
  endfacet
  facet normal -0.525483 -0.66913 0.525483
    outer loop
      vertex 0 44.4913 6.54727
      vertex 20 42.731 24.3057
      vertex 18.4527 44.4913 25
    endloop
  endfacet
  facet normal -0.525484 -0.669128 0.525484
    outer loop
      vertex 20 42.731 24.3057
      vertex 0 44.4913 6.54727
      vertex 0 44.097 6.04513
    endloop
  endfacet
  facet normal -0 -1 0
    outer loop
      vertex 2.8826 49.3932 25
      vertex 0 49.3932 25
      vertex 0 49.3932 22.1174
    endloop
  endfacet
  facet normal -0.415627 -0.809017 0.415627
    outer loop
      vertex 0 46.8875 11.2114
      vertex 18.4527 44.4913 25
      vertex 13.7886 46.8875 25
    endloop
  endfacet
  facet normal -0.415627 -0.809017 0.415627
    outer loop
      vertex 18.4527 44.4913 25
      vertex 0 46.8875 11.2114
      vertex 0 44.4913 6.54727
    endloop
  endfacet
  facet normal -0.415627 0.809017 0.415627
    outer loop
      vertex 18.4527 15.5087 25
      vertex 0 13.1125 11.2114
      vertex 13.7886 13.1125 25
    endloop
  endfacet
  facet normal -0.415627 0.809017 0.415627
    outer loop
      vertex 0 13.1125 11.2114
      vertex 18.4527 15.5087 25
      vertex 0 15.5087 6.54727
    endloop
  endfacet
  facet normal -0.147016 0.978148 0.147016
    outer loop
      vertex 8.52181 11.4544 25
      vertex 0 10.6068 22.1174
      vertex 2.8826 10.6068 25
    endloop
  endfacet
  facet normal -0.147016 0.978148 0.147016
    outer loop
      vertex 0 10.6068 22.1174
      vertex 8.52181 11.4544 25
      vertex 0 11.4544 16.4782
    endloop
  endfacet
  facet normal -0.612372 0.5 0.612373
    outer loop
      vertex 0 18.5382 2.6896
      vertex 0.192994 22.0686 0
      vertex 0 21.8323 0
    endloop
  endfacet
  facet normal -0.612372 0.5 0.612372
    outer loop
      vertex 0.192994 22.0686 0
      vertex 0 18.5382 2.6896
      vertex 20 22.0686 19.807
    endloop
  endfacet
  facet normal -0.612372 0.5 0.612372
    outer loop
      vertex 20 22.0686 19.807
      vertex 0 18.5382 2.6896
      vertex 20 18.5382 22.6896
    endloop
  endfacet
  facet normal -0.672499 0.309017 0.672499
    outer loop
      vertex 0.192994 22.0686 0
      vertex 20 25.9457 18.0255
      vertex 1.97454 25.9457 0
    endloop
  endfacet
  facet normal -0.672499 0.309017 0.672499
    outer loop
      vertex 20 25.9457 18.0255
      vertex 0.192994 22.0686 0
      vertex 20 22.0686 19.807
    endloop
  endfacet
  facet normal -0 1 0
    outer loop
      vertex 0 10.6068 25
      vertex 2.8826 10.6068 25
      vertex 0 10.6068 22.1174
    endloop
  endfacet
  facet normal -0.525483 -0.66913 0.525483
    outer loop
      vertex 0 44.097 6.04513
      vertex 20 41.4618 22.6896
      vertex 20 42.731 24.3057
    endloop
  endfacet
  facet normal -0.525483 -0.66913 0.525483
    outer loop
      vertex 20 41.4618 22.6896
      vertex 0 44.097 6.04513
      vertex 0 41.4618 2.6896
    endloop
  endfacet
  facet normal -0.287606 0.913545 0.287606
    outer loop
      vertex 13.7886 13.1125 25
      vertex 0 11.4544 16.4782
      vertex 8.52181 11.4544 25
    endloop
  endfacet
  facet normal -0.287606 0.913545 0.287606
    outer loop
      vertex 0 11.4544 16.4782
      vertex 13.7886 13.1125 25
      vertex 0 13.1125 11.2114
    endloop
  endfacet
  facet normal -0.525483 0.66913 0.525483
    outer loop
      vertex 20 17.269 24.3057
      vertex 18.4527 15.5087 25
      vertex 20 16.7238 25
    endloop
  endfacet
  facet normal -0.525483 0.66913 0.525483
    outer loop
      vertex 20 17.269 24.3057
      vertex 0 15.5087 6.54727
      vertex 18.4527 15.5087 25
    endloop
  endfacet
  facet normal -0.525483 0.669131 0.525483
    outer loop
      vertex 0 15.5087 6.54727
      vertex 20 17.269 24.3057
      vertex 0 15.903 6.04513
    endloop
  endfacet
  facet normal -0.525483 0.66913 0.525483
    outer loop
      vertex 20 18.5382 22.6896
      vertex 0 15.903 6.04513
      vertex 20 17.269 24.3057
    endloop
  endfacet
  facet normal -0.525483 0.66913 0.525483
    outer loop
      vertex 0 15.903 6.04513
      vertex 20 18.5382 22.6896
      vertex 0 18.5382 2.6896
    endloop
  endfacet
  facet normal -0.612369 -0.500002 0.612375
    outer loop
      vertex 0.192994 37.9314 0
      vertex 0 41.4618 2.6896
      vertex 0 38.1677 0
    endloop
  endfacet
  facet normal -0.612372 -0.5 0.612372
    outer loop
      vertex 0 41.4618 2.6896
      vertex 0.192994 37.9314 0
      vertex 20 37.9314 19.807
    endloop
  endfacet
  facet normal -0.612372 -0.5 0.612372
    outer loop
      vertex 0 41.4618 2.6896
      vertex 20 37.9314 19.807
      vertex 20 41.4618 22.6896
    endloop
  endfacet
  facet normal -0.672499 -0.309017 0.672499
    outer loop
      vertex 20 34.0543 18.0255
      vertex 0.192994 37.9314 0
      vertex 1.97454 34.0543 0
    endloop
  endfacet
  facet normal -0.672499 -0.309017 0.672499
    outer loop
      vertex 0.192994 37.9314 0
      vertex 20 34.0543 18.0255
      vertex 20 37.9314 19.807
    endloop
  endfacet
  facet normal -0.287606 -0.913546 0.287606
    outer loop
      vertex 0 48.5456 16.4782
      vertex 13.7886 46.8875 25
      vertex 8.52181 48.5456 25
    endloop
  endfacet
  facet normal -0.287606 -0.913546 0.287606
    outer loop
      vertex 13.7886 46.8875 25
      vertex 0 48.5456 16.4782
      vertex 0 46.8875 11.2114
    endloop
  endfacet
  facet normal -0.147016 -0.978148 0.147016
    outer loop
      vertex 0 49.3932 22.1174
      vertex 8.52181 48.5456 25
      vertex 2.8826 49.3932 25
    endloop
  endfacet
  facet normal -0.147016 -0.978148 0.147016
    outer loop
      vertex 8.52181 48.5456 25
      vertex 0 49.3932 22.1174
      vertex 0 48.5456 16.4782
    endloop
  endfacet
  facet normal -1 0 0
    outer loop
      vertex 18 30 15.4228
      vertex 18 33.5 22
      vertex 18 33.5 15.9431
    endloop
  endfacet
  facet normal -1 0 0
    outer loop
      vertex 18 26.5 22
      vertex 18 30 15.4228
      vertex 18 26.5 15.9431
    endloop
  endfacet
  facet normal -1 0 0
    outer loop
      vertex 18 30 15.4228
      vertex 18 26.5 22
      vertex 18 33.5 22
    endloop
  endfacet
  facet normal -0 0 1
    outer loop
      vertex 18 33.5 22
      vertex 20 26.5 22
      vertex 20 33.5 22
    endloop
  endfacet
  facet normal 0 0 1
    outer loop
      vertex 20 26.5 22
      vertex 18 33.5 22
      vertex 18 26.5 22
    endloop
  endfacet
  facet normal 0 -1 0
    outer loop
      vertex 18 26.5 22
      vertex 20 26.5 17.9431
      vertex 20 26.5 22
    endloop
  endfacet
  facet normal -0 -1 0
    outer loop
      vertex 20 26.5 17.9431
      vertex 18 26.5 22
      vertex 18 26.5 15.9431
    endloop
  endfacet
  facet normal 0 1 -0
    outer loop
      vertex 20 33.5 17.9431
      vertex 18 33.5 22
      vertex 20 33.5 22
    endloop
  endfacet
  facet normal 0 1 0
    outer loop
      vertex 18 33.5 22
      vertex 20 33.5 17.9431
      vertex 18 33.5 15.9431
    endloop
  endfacet
endsolid OpenSCAD_Model
